<?xml version="1.0" encoding="UTF-8" standalone="no"?>
<!-- generated by Grace-5.1.22 -->

<svg
   xmlns:dc="http://purl.org/dc/elements/1.1/"
   xmlns:cc="http://creativecommons.org/ns#"
   xmlns:rdf="http://www.w3.org/1999/02/22-rdf-syntax-ns#"
   xmlns:svg="http://www.w3.org/2000/svg"
   xmlns="http://www.w3.org/2000/svg"
   xmlns:sodipodi="http://sodipodi.sourceforge.net/DTD/sodipodi-0.dtd"
   xmlns:inkscape="http://www.inkscape.org/namespaces/inkscape"
   xml:space="preserve"
   width="9.1782112in"
   height="7.3059025in"
   viewBox="0 0 660.83121 526.02498"
   id="svg5160"
   version="1.1"
   inkscape:version="0.91 r13725"
   sodipodi:docname="Se84ProtonSpectrum_zoom.svg"><metadata
     id="metadata5538"><rdf:RDF><cc:Work
         rdf:about=""><dc:format>image/svg+xml</dc:format><dc:type
           rdf:resource="http://purl.org/dc/dcmitype/StillImage" /><dc:title></dc:title></cc:Work></rdf:RDF></metadata><defs
     id="defs5536" /><sodipodi:namedview
     pagecolor="#ffffff"
     bordercolor="#666666"
     borderopacity="1"
     objecttolerance="10"
     gridtolerance="10"
     guidetolerance="10"
     inkscape:pageopacity="0"
     inkscape:pageshadow="2"
     inkscape:window-width="1600"
     inkscape:window-height="1138"
     id="namedview5534"
     showgrid="false"
     showborder="true"
     inkscape:zoom="0.61699346"
     inkscape:cx="722.98744"
     inkscape:cy="309.38543"
     inkscape:window-x="-8"
     inkscape:window-y="-8"
     inkscape:window-maximized="1"
     inkscape:current-layer="svg5160"
     fit-margin-top="0"
     fit-margin-left="0"
     fit-margin-right="0"
     fit-margin-bottom="0" /><g
     id="g5172"
     style="fill:none;stroke:#000000;stroke-width:3.67199993;stroke-linecap:butt;stroke-linejoin:miter;stroke-dasharray:none"
     transform="matrix(0.92740267,0,0,-0.92740267,-20.825906,541.30942)"><g
       id="g5174"
       transform="translate(398.4976,304.9458)"><path
         inkscape:connector-curvature="0"
         id="path5176"
         d="M 305.3636,50.7065 294.0084,48.4857 277.2107,44.782 260.4122,40.677 243.6136,36.234 226.8159,31.5616 210.0174,26.7954 193.2188,22.0768 176.4211,17.53 159.6225,13.2427 142.8242,9.2324 126.0259,5.3697 109.2276,1.2104 92.4293,-4.2627 75.631,-10.5525 58.8327,-16.6582 42.0345,-22.0498 25.2362,-26.9384 8.4379,-31.3999 l -16.7983,-4.0593 -16.7985,-3.6524 -16.7977,-3.2192 -16.7986,-2.7389 -16.7985,-2.1867 -16.7977,-1.5342 -16.7986,-0.7425 -16.7985,0.2384 -16.7986,1.4809 -16.7977,3.0816 -16.7985,5.1698 -16.7986,7.9107 -16.7977,11.4649 -16.7985,15.8732 -16.7986,20.7507 -16.7977,24.8596 -16.7985,26.0391 -16.7986,21.5847 -12.8273,6.1536" /></g></g><g
     id="g5178"
     style="fill:none;stroke:#ff0000;stroke-width:3.67199993;stroke-linecap:butt;stroke-linejoin:miter;stroke-dasharray:none"
     transform="matrix(0.92740267,0,0,-0.92740267,-20.825906,541.30942)"><g
       id="g5180"
       transform="translate(398.4976,102.8648)"><path
         inkscape:connector-curvature="0"
         id="path5182"
         d="M 305.3636,-6.3363 294.0084,-6.3839 277.2107,-6.4567 260.4122,-6.532 243.6136,-6.6097 226.8159,-6.6901 210.0174,-6.7733 193.2188,-6.8595 176.4211,-6.949 159.6225,-7.0422 142.8242,-7.1399 126.0259,-7.2432 109.2276,-7.355 92.4293,-7.484 75.631,-7.3854 58.8327,-7.2078 42.0345,-7.0327 25.2362,-6.837 8.4379,-6.6092 l -16.7983,0.2701 -16.7985,0.3239 -16.7977,0.392 -16.7986,0.4783 -16.7985,0.5884 -16.7977,0.7306 -16.7986,0.9164 -16.7985,1.1617 -16.7986,1.4896 -16.7977,1.9305 -16.7985,2.5226 -16.7986,3.3011 -16.7977,4.2597 -16.7985,5.242 -16.7986,5.7271 -16.7977,4.6953 -16.7985,1.3456 -16.7986,-3.2023 -12.8273,-4.8067" /></g></g><g
     id="g5184"
     style="fill:none;stroke:#0000ff;stroke-width:3.67199993;stroke-linecap:butt;stroke-linejoin:miter;stroke-dasharray:none"
     transform="matrix(0.92740267,0,0,-0.92740267,-20.825906,541.30942)"><g
       id="g5186"
       transform="translate(398.4976,106.4727)"><path
         inkscape:connector-curvature="0"
         id="path5188"
         d="M 305.3636,1.8515 294.0084,2.1129 277.2107,2.5498 260.4122,3.047 243.6136,3.6175 226.8159,4.2765 210.0174,5.0422 193.2188,5.934 176.4211,6.9681 159.6225,8.1456 142.8242,9.4185 126.0259,10.6121 109.2276,11.2627 92.4293,10.3795 75.631,7.457 58.8327,5.3178 42.0345,3.7136 25.2362,2.3978 8.4379,1.2691 -8.3604,0.273 -25.1589,-0.6238 -41.9566,-1.4433 -58.7552,-2.201 -75.5537,-2.9079 -92.3514,-3.5724 -109.15,-4.2009 l -16.7985,-0.5974 -16.7986,-0.5701 -16.7977,-0.5461 -16.7985,-0.5243 -16.7986,-0.5046 -16.7977,-0.4863 -16.7985,-0.4695 -16.7986,-0.4534 -16.7977,-0.4381 -16.7985,-0.4233 -16.7986,-0.409 -12.8273,-0.3016" /></g></g><g
     id="g5190"
     style="fill:none;stroke:#00ff00;stroke-width:3.67199993;stroke-linecap:butt;stroke-linejoin:miter;stroke-dasharray:none"
     transform="matrix(0.92740267,0,0,-0.92740267,-20.825906,541.30942)"><g
       id="g5192"
       transform="translate(398.4976,140.8315)"><path
         inkscape:connector-curvature="0"
         id="path5194"
         d="m 305.3636,-25.8691 -11.3552,-0.1961 -16.7977,-0.2861 -16.7985,-0.2778 -16.7986,-0.2638 -16.7977,-0.2425 -16.7985,-0.2118 -16.7986,-0.1685 -16.7977,-0.1097 -16.7986,-0.033 -16.7983,0.063 -16.7983,0.177 -16.7983,0.2987 -16.7983,0.3971 -16.7983,0.614 -16.7983,0.5065 -16.7982,0.5889 -16.7983,0.6905 -16.7983,0.8125 -16.7983,0.9584 -16.7985,1.1332 -16.7977,1.3444 -16.7986,1.601 -16.7985,1.9159 -16.7977,2.3063 -16.7986,2.7959 -16.7985,3.4169 -16.7986,4.2154 -16.7977,5.2554 -16.7985,6.6269 -16.7986,8.4556 -16.7977,10.9085 -16.7985,14.1772 -16.7986,18.3969 -16.7977,23.344 -16.7985,27.6528 -16.7986,27.4937 -12.8273,12.8029" /></g></g><g
     id="g5196"
     style="fill:none;stroke:#000000;stroke-width:3.67199993;stroke-linecap:butt;stroke-linejoin:miter;stroke-dasharray:4, 11"
     transform="matrix(0.92740267,0,0,-0.92740267,-20.825906,541.30942)"><g
       id="g5198"
       transform="translate(398.4976,116.0045)"><path
         inkscape:connector-curvature="0"
         id="path5200"
         d="m 305.3636,19.335 -11.3552,0.2569 -16.7977,-0.0505 -16.7985,-0.499 -16.7986,-0.9156 -16.7977,-1.2582 -16.7985,-1.5033 -16.7986,-1.649 -16.7977,-1.708 -16.7986,-1.699 L 142.8242,8.668 126.0259,7.1109 109.2276,5.6446 92.4293,4.2718 75.631,3.1409 58.8327,1.9128 42.0345,0.7439 25.2362,-0.3739 8.4379,-1.4469 -8.3604,-2.4802 -25.1589,-3.478 l -16.7977,-0.9658 -16.7986,-0.9366 -16.7985,-0.91 -16.7977,-0.8852 -16.7986,-0.8621 -16.7985,-0.8404 -16.7986,-0.8197 -16.7977,-0.7999 -16.7985,-0.7807 -16.7986,-0.7618 -16.7977,-0.7432 -16.7985,-0.7248 -16.7986,-0.7063 -16.7977,-0.6876 -16.7985,-0.6686 -16.7986,-0.6493 -12.8273,-0.4806" /></g></g><g
     id="g5202"
     style="fill:none;stroke:#9400d3;stroke-width:3.67199993;stroke-linecap:butt;stroke-linejoin:miter;stroke-dasharray:none"
     transform="matrix(0.92740267,0,0,-0.92740267,-20.825906,541.30942)"><g
       id="g5204"
       transform="translate(398.4976,120.124)"><path
         inkscape:connector-curvature="0"
         id="path5206"
         d="M 305.3636,3.0568 294.0084,2.8189 277.2107,2.478 260.4122,2.1488 243.6136,1.8315 226.8159,1.5259 210.0174,1.2305 193.2188,0.9444 176.4211,0.6684 159.6225,0.4042 142.8242,0.1504 126.0259,-0.0964 109.2276,-0.3347 92.4293,-0.5588 75.631,-0.591 58.8327,-0.7907 42.0345,-0.9774 25.2362,-1.1498 8.4379,-1.3066 -8.3604,-1.4462 l -16.7985,-0.1207 -16.7977,-0.0994 -16.7986,-0.0759 -16.7985,-0.0495 -16.7977,-0.0201 -16.7986,0.0133 -16.7985,0.0508 -16.7986,0.0933 -16.7977,0.1416 -16.7985,0.1968 -16.7986,0.2602 -16.7977,0.3333 -16.7985,0.4181 -16.7986,0.5174 -16.7977,0.6345 -16.7985,0.7739 -16.7986,0.942 -12.8273,0.8759" /></g></g><g
     id="g5208"
     style="fill:none;stroke:#000000;stroke-width:0.91799998;stroke-linecap:butt;stroke-linejoin:miter;stroke-dasharray:none"
     transform="matrix(0.92740267,0,0,-0.92740267,-20.825906,541.30942)"><g
       id="g5210"
       transform="translate(397.8,91.8)"><path
         inkscape:connector-curvature="0"
         id="path5212"
         d="M -306,0 306,0" /></g><g
       id="g5214"
       transform="translate(397.8,520.2)"><path
         inkscape:connector-curvature="0"
         id="path5216"
         d="M -306,0 306,0" /></g><g
       id="g5218"
       transform="translate(100.3,94.86)"><path
         inkscape:connector-curvature="0"
         id="path5220"
         d="M 0,-3.06 0,3.06" /></g><g
       id="g5222"
       transform="translate(100.3,517.14)"><path
         inkscape:connector-curvature="0"
         id="path5224"
         d="M 0,3.06 0,-3.06" /></g><g
       id="g5226"
       transform="translate(185.3,94.86)"><path
         inkscape:connector-curvature="0"
         id="path5228"
         d="M 0,-3.06 0,3.06" /></g><g
       id="g5230"
       transform="translate(185.3,517.14)"><path
         inkscape:connector-curvature="0"
         id="path5232"
         d="M 0,3.06 0,-3.06" /></g><g
       id="g5234"
       transform="translate(270.3,94.86)"><path
         inkscape:connector-curvature="0"
         id="path5236"
         d="M 0,-3.06 0,3.06" /></g><g
       id="g5238"
       transform="translate(270.3,517.14)"><path
         inkscape:connector-curvature="0"
         id="path5240"
         d="M 0,3.06 0,-3.06" /></g><g
       id="g5242"
       transform="translate(355.3,94.86)"><path
         inkscape:connector-curvature="0"
         id="path5244"
         d="M 0,-3.06 0,3.06" /></g><g
       id="g5246"
       transform="translate(355.3,517.14)"><path
         inkscape:connector-curvature="0"
         id="path5248"
         d="M 0,3.06 0,-3.06" /></g><g
       id="g5250"
       transform="translate(440.3,94.86)"><path
         inkscape:connector-curvature="0"
         id="path5252"
         d="M 0,-3.06 0,3.06" /></g><g
       id="g5254"
       transform="translate(440.3,517.14)"><path
         inkscape:connector-curvature="0"
         id="path5256"
         d="M 0,3.06 0,-3.06" /></g><g
       id="g5258"
       transform="translate(525.3,94.86)"><path
         inkscape:connector-curvature="0"
         id="path5260"
         d="M 0,-3.06 0,3.06" /></g><g
       id="g5262"
       transform="translate(525.3,517.14)"><path
         inkscape:connector-curvature="0"
         id="path5264"
         d="M 0,3.06 0,-3.06" /></g><g
       id="g5266"
       transform="translate(610.3,94.86)"><path
         inkscape:connector-curvature="0"
         id="path5268"
         d="M 0,-3.06 0,3.06" /></g><g
       id="g5270"
       transform="translate(610.3,517.14)"><path
         inkscape:connector-curvature="0"
         id="path5272"
         d="M 0,3.06 0,-3.06" /></g><g
       id="g5274"
       transform="translate(695.3,94.86)"><path
         inkscape:connector-curvature="0"
         id="path5276"
         d="M 0,-3.06 0,3.06" /></g><g
       id="g5278"
       transform="translate(695.3,517.14)"><path
         inkscape:connector-curvature="0"
         id="path5280"
         d="M 0,3.06 0,-3.06" /></g><g
       id="g5282"
       transform="translate(142.8,97.92)"><path
         inkscape:connector-curvature="0"
         id="path5284"
         d="M 0,-6.12 0,6.12" /></g><g
       id="g5286"
       transform="translate(142.8,514.08)"><path
         inkscape:connector-curvature="0"
         id="path5288"
         d="M 0,6.12 0,-6.12" /></g><g
       id="g5290"
       transform="translate(227.8,97.92)"><path
         inkscape:connector-curvature="0"
         id="path5292"
         d="M 0,-6.12 0,6.12" /></g><g
       id="g5294"
       transform="translate(227.8,514.08)"><path
         inkscape:connector-curvature="0"
         id="path5296"
         d="M 0,6.12 0,-6.12" /></g><g
       id="g5298"
       transform="translate(312.8,97.92)"><path
         inkscape:connector-curvature="0"
         id="path5300"
         d="M 0,-6.12 0,6.12" /></g><g
       id="g5302"
       transform="translate(312.8,514.08)"><path
         inkscape:connector-curvature="0"
         id="path5304"
         d="M 0,6.12 0,-6.12" /></g><g
       id="g5306"
       transform="translate(397.8,97.92)"><path
         inkscape:connector-curvature="0"
         id="path5308"
         d="M 0,-6.12 0,6.12" /></g><g
       id="g5310"
       transform="translate(397.8,514.08)"><path
         inkscape:connector-curvature="0"
         id="path5312"
         d="M 0,6.12 0,-6.12" /></g><g
       id="g5314"
       transform="translate(482.8,97.92)"><path
         inkscape:connector-curvature="0"
         id="path5316"
         d="M 0,-6.12 0,6.12" /></g><g
       id="g5318"
       transform="translate(482.8,514.08)"><path
         inkscape:connector-curvature="0"
         id="path5320"
         d="M 0,6.12 0,-6.12" /></g><g
       id="g5322"
       transform="translate(567.8,97.92)"><path
         inkscape:connector-curvature="0"
         id="path5324"
         d="M 0,-6.12 0,6.12" /></g><g
       id="g5326"
       transform="translate(567.8,514.08)"><path
         inkscape:connector-curvature="0"
         id="path5328"
         d="M 0,6.12 0,-6.12" /></g><g
       id="g5330"
       transform="translate(652.8,97.92)"><path
         inkscape:connector-curvature="0"
         id="path5332"
         d="M 0,-6.12 0,6.12" /></g><g
       id="g5334"
       transform="translate(652.8,514.08)"><path
         inkscape:connector-curvature="0"
         id="path5336"
         d="M 0,6.12 0,-6.12" /></g></g><g
     id="g5338"
     style="fill:#000000;fill-rule:nonzero"
     transform="matrix(0.92740267,0,0,-0.92740267,-20.825906,541.30942)"><text
       id="text5340"
       transform="matrix(0.028,0,0,-0.028,135.8,73.68)"
       style="font-style:normal;font-weight:normal;font-size:612px;font-family:Times, 'Nimbus Roman No9 L'">-4</text>
<text
       id="text5342"
       transform="matrix(0.028,0,0,-0.028,221.3,73.68)"
       style="font-style:normal;font-weight:normal;font-size:612px;font-family:Times, 'Nimbus Roman No9 L'">-3</text>
<text
       id="text5344"
       transform="matrix(0.028,0,0,-0.028,305.8,73.68)"
       style="font-style:normal;font-weight:normal;font-size:612px;font-family:Times, 'Nimbus Roman No9 L'">-2</text>
<text
       id="text5346"
       transform="matrix(0.028,0,0,-0.028,391.3,73.68)"
       style="font-style:normal;font-weight:normal;font-size:612px;font-family:Times, 'Nimbus Roman No9 L'">-1</text>
<text
       id="text5348"
       transform="matrix(0.028,0,0,-0.028,478.8,73.68)"
       style="font-style:normal;font-weight:normal;font-size:612px;font-family:Times, 'Nimbus Roman No9 L'">0</text>
<text
       id="text5350"
       transform="matrix(0.028,0,0,-0.028,564.3,73.68)"
       style="font-style:normal;font-weight:normal;font-size:612px;font-family:Times, 'Nimbus Roman No9 L'">1</text>
<text
       id="text5352"
       transform="matrix(0.028,0,0,-0.028,648.8,73.68)"
       style="font-style:normal;font-weight:normal;font-size:612px;font-family:Times, 'Nimbus Roman No9 L'">2</text>
</g><g
     id="g5354"
     style="fill:none;stroke:#000000;stroke-width:0.91799998;stroke-linecap:butt;stroke-linejoin:miter;stroke-dasharray:none"
     transform="matrix(0.92740267,0,0,-0.92740267,-20.825906,541.30942)"><g
       id="g5356"
       transform="translate(91.8,306)"><path
         inkscape:connector-curvature="0"
         id="path5358"
         d="M 0,-214.2 0,214.2" /></g><g
       id="g5360"
       transform="translate(703.8,306)"><path
         inkscape:connector-curvature="0"
         id="path5362"
         d="M 0,-214.2 0,214.2" /></g><g
       id="g5364"
       transform="translate(94.86,139.4)"><path
         inkscape:connector-curvature="0"
         id="path5366"
         d="M -3.06,0 3.06,0" /></g><g
       id="g5368"
       transform="translate(700.74,139.4)"><path
         inkscape:connector-curvature="0"
         id="path5370"
         d="M 3.06,0 -3.06,0" /></g><g
       id="g5372"
       transform="translate(94.86,234.6)"><path
         inkscape:connector-curvature="0"
         id="path5374"
         d="M -3.06,0 3.06,0" /></g><g
       id="g5376"
       transform="translate(700.74,234.6)"><path
         inkscape:connector-curvature="0"
         id="path5378"
         d="M 3.06,0 -3.06,0" /></g><g
       id="g5380"
       transform="translate(94.86,329.8)"><path
         inkscape:connector-curvature="0"
         id="path5382"
         d="M -3.06,0 3.06,0" /></g><g
       id="g5384"
       transform="translate(700.74,329.8)"><path
         inkscape:connector-curvature="0"
         id="path5386"
         d="M 3.06,0 -3.06,0" /></g><g
       id="g5388"
       transform="translate(94.86,425)"><path
         inkscape:connector-curvature="0"
         id="path5390"
         d="M -3.06,0 3.06,0" /></g><g
       id="g5392"
       transform="translate(700.74,425)"><path
         inkscape:connector-curvature="0"
         id="path5394"
         d="M 3.06,0 -3.06,0" /></g><g
       id="g5396"
       transform="translate(94.86,520.2)"><path
         inkscape:connector-curvature="0"
         id="path5398"
         d="M -3.06,0 3.06,0" /></g><g
       id="g5400"
       transform="translate(700.74,520.2)"><path
         inkscape:connector-curvature="0"
         id="path5402"
         d="M 3.06,0 -3.06,0" /></g><g
       id="g5404"
       transform="translate(97.92,91.8)"><path
         inkscape:connector-curvature="0"
         id="path5406"
         d="M -6.12,0 6.12,0" /></g><g
       id="g5408"
       transform="translate(697.68,91.8)"><path
         inkscape:connector-curvature="0"
         id="path5410"
         d="M 6.12,0 -6.12,0" /></g><g
       id="g5412"
       transform="translate(97.92,187)"><path
         inkscape:connector-curvature="0"
         id="path5414"
         d="M -6.12,0 6.12,0" /></g><g
       id="g5416"
       transform="translate(697.68,187)"><path
         inkscape:connector-curvature="0"
         id="path5418"
         d="M 6.12,0 -6.12,0" /></g><g
       id="g5420"
       transform="translate(97.92,282.2)"><path
         inkscape:connector-curvature="0"
         id="path5422"
         d="M -6.12,0 6.12,0" /></g><g
       id="g5424"
       transform="translate(697.68,282.2)"><path
         inkscape:connector-curvature="0"
         id="path5426"
         d="M 6.12,0 -6.12,0" /></g><g
       id="g5428"
       transform="translate(97.92,377.4)"><path
         inkscape:connector-curvature="0"
         id="path5430"
         d="M -6.12,0 6.12,0" /></g><g
       id="g5432"
       transform="translate(697.68,377.4)"><path
         inkscape:connector-curvature="0"
         id="path5434"
         d="M 6.12,0 -6.12,0" /></g><g
       id="g5436"
       transform="translate(97.92,472.6)"><path
         inkscape:connector-curvature="0"
         id="path5438"
         d="M -6.12,0 6.12,0" /></g><g
       id="g5440"
       transform="translate(697.68,472.6)"><path
         inkscape:connector-curvature="0"
         id="path5442"
         d="M 6.12,0 -6.12,0" /></g></g><g
     id="g5444"
     style="fill:#000000;fill-rule:nonzero"
     transform="matrix(0.92740267,0,0,-0.92740267,-20.825906,541.30942)"><text
       id="text5446"
       transform="matrix(0.028,0,0,-0.028,77.68,85.8)"
       style="font-style:normal;font-weight:normal;font-size:612px;font-family:Times, 'Nimbus Roman No9 L'">0</text>
<text
       id="text5448"
       transform="matrix(0.028,0,0,-0.028,77.68,181)"
       style="font-style:normal;font-weight:normal;font-size:612px;font-family:Times, 'Nimbus Roman No9 L'">2</text>
<text
       id="text5450"
       transform="matrix(0.028,0,0,-0.028,77.68,276.2)"
       style="font-style:normal;font-weight:normal;font-size:612px;font-family:Times, 'Nimbus Roman No9 L'">4</text>
<text
       id="text5452"
       transform="matrix(0.028,0,0,-0.028,77.68,371.4)"
       style="font-style:normal;font-weight:normal;font-size:612px;font-family:Times, 'Nimbus Roman No9 L'">6</text>
<text
       id="text5454"
       transform="matrix(0.028,0,0,-0.028,77.68,466.6)"
       style="font-style:normal;font-weight:normal;font-size:612px;font-family:Times, 'Nimbus Roman No9 L'">8</text>
</g><g
     id="g5456"
     style="fill:none;stroke:#000000;stroke-width:0.91799998;stroke-linecap:butt;stroke-linejoin:miter;stroke-dasharray:none"
     transform="matrix(0.92740267,0,0,-0.92740267,-20.825906,541.30942)"><g
       id="g5458"
       transform="translate(397.8,306)"><path
         inkscape:connector-curvature="0"
         id="path5460"
         d="m -306,-214.2 0,428.4 612,0 0,-428.4 z" /></g></g><g
     id="g5462"
     style="fill:#ffffff;fill-rule:nonzero"
     transform="matrix(0.92740267,0,0,-0.92740267,-20.825906,541.30942)"><g
       id="g5464"
       transform="translate(560.598,432.18)"><path
         inkscape:connector-curvature="0"
         id="path5466"
         d="m -40.398,57.42 0,-114.84 80.796,0 0,114.84 z" /></g></g><g
     id="g5468"
     style="fill:none;stroke:#000000;stroke-width:0.91799998;stroke-linecap:butt;stroke-linejoin:miter;stroke-dasharray:none"
     transform="matrix(0.92740267,0,0,-0.92740267,-20.825906,541.30942)"><g
       id="g5470"
       transform="translate(560.598,432.18)"><path
         inkscape:connector-curvature="0"
         id="path5472"
         d="m -40.398,57.42 0,-114.84 80.796,0 0,114.84 z" /></g></g><g
     id="g5474"
     style="fill:#000000;fill-rule:nonzero"
     transform="matrix(0.92740267,0,0,-0.92740267,-20.825906,541.30942)"><text
       id="text5476"
       transform="matrix(0.028,0,0,-0.028,564.876,471.48)"
       style="font-style:normal;font-weight:normal;font-size:612px;font-family:Times, 'Nimbus Roman No9 L'">total</text>
</g><g
     id="g5478"
     style="fill:none;stroke:#000000;stroke-width:3.67199993;stroke-linecap:butt;stroke-linejoin:miter;stroke-dasharray:none"
     transform="matrix(0.92740267,0,0,-0.92740267,-20.825906,541.30942)"><g
       id="g5480"
       transform="translate(540.396,477.48)"><path
         inkscape:connector-curvature="0"
         id="path5482"
         d="M -12.24,0 12.24,0" /></g></g><g
     id="g5484"
     style="fill:#000000;fill-rule:nonzero"
     transform="matrix(0.92740267,0,0,-0.92740267,-20.825906,541.30942)"><text
       id="text5486"
       transform="matrix(0.028,0,0,-0.028,564.876,453.36)"
       style="font-style:normal;font-weight:normal;font-size:612px;font-family:Times, 'Nimbus Roman No9 L'">L=0</text>
</g><g
     id="g5488"
     style="fill:none;stroke:#ff0000;stroke-width:3.67199993;stroke-linecap:butt;stroke-linejoin:miter;stroke-dasharray:none"
     transform="matrix(0.92740267,0,0,-0.92740267,-20.825906,541.30942)"><g
       id="g5490"
       transform="translate(540.396,459.36)"><path
         inkscape:connector-curvature="0"
         id="path5492"
         d="M -12.24,0 12.24,0" /></g></g><g
     id="g5494"
     style="fill:#000000;fill-rule:nonzero"
     transform="matrix(0.92740267,0,0,-0.92740267,-20.825906,541.30942)"><text
       id="text5496"
       transform="matrix(0.028,0,0,-0.028,564.876,435.24)"
       style="font-style:normal;font-weight:normal;font-size:612px;font-family:Times, 'Nimbus Roman No9 L'">L=1</text>
</g><g
     id="g5498"
     style="fill:none;stroke:#0000ff;stroke-width:3.67199993;stroke-linecap:butt;stroke-linejoin:miter;stroke-dasharray:none"
     transform="matrix(0.92740267,0,0,-0.92740267,-20.825906,541.30942)"><g
       id="g5500"
       transform="translate(540.396,441.24)"><path
         inkscape:connector-curvature="0"
         id="path5502"
         d="M -12.24,0 12.24,0" /></g></g><g
     id="g5504"
     style="fill:#000000;fill-rule:nonzero"
     transform="matrix(0.92740267,0,0,-0.92740267,-20.825906,541.30942)"><text
       id="text5506"
       transform="matrix(0.028,0,0,-0.028,564.876,417.12)"
       style="font-style:normal;font-weight:normal;font-size:612px;font-family:Times, 'Nimbus Roman No9 L'">L=2</text>
</g><g
     id="g5508"
     style="fill:none;stroke:#00ff00;stroke-width:3.67199993;stroke-linecap:butt;stroke-linejoin:miter;stroke-dasharray:none"
     transform="matrix(0.92740267,0,0,-0.92740267,-20.825906,541.30942)"><g
       id="g5510"
       transform="translate(540.396,423.12)"><path
         inkscape:connector-curvature="0"
         id="path5512"
         d="M -12.24,0 12.24,0" /></g></g><g
     id="g5514"
     style="fill:#000000;fill-rule:nonzero"
     transform="matrix(0.92740267,0,0,-0.92740267,-20.825906,541.30942)"><text
       id="text5516"
       transform="matrix(0.028,0,0,-0.028,564.876,399)"
       style="font-style:normal;font-weight:normal;font-size:612px;font-family:Times, 'Nimbus Roman No9 L'">L=3</text>
</g><g
     id="g5518"
     style="fill:none;stroke:#000000;stroke-width:3.67199993;stroke-linecap:butt;stroke-linejoin:miter;stroke-dasharray:4, 11"
     transform="matrix(0.92740267,0,0,-0.92740267,-20.825906,541.30942)"><g
       id="g5520"
       transform="translate(540.396,405)"><path
         inkscape:connector-curvature="0"
         id="path5522"
         d="M -12.24,0 12.24,0" /></g></g><g
     id="g5524"
     style="fill:#000000;fill-rule:nonzero"
     transform="matrix(0.92740267,0,0,-0.92740267,-20.825906,541.30942)"><text
       id="text5526"
       transform="matrix(0.028,0,0,-0.028,564.876,380.88)"
       style="font-style:normal;font-weight:normal;font-size:612px;font-family:Times, 'Nimbus Roman No9 L'">L=4</text>
</g><g
     id="g5528"
     style="fill:none;stroke:#9400d3;stroke-width:3.67199993;stroke-linecap:butt;stroke-linejoin:miter;stroke-dasharray:none"
     transform="matrix(0.92740267,0,0,-0.92740267,-20.825906,541.30942)"><g
       id="g5530"
       transform="translate(540.396,386.88)"><path
         inkscape:connector-curvature="0"
         id="path5532"
         d="M -12.24,0 12.24,0" /></g></g><text
     xml:space="preserve"
     style="font-style:normal;font-variant:normal;font-weight:normal;font-stretch:normal;font-size:27.82208061px;line-height:125%;font-family:'Times New Roman';-inkscape-font-specification:'Times New Roman, Normal';text-align:start;letter-spacing:0px;word-spacing:0px;writing-mode:lr-tb;text-anchor:start;fill:#000000;fill-opacity:1;stroke:none;stroke-width:1px;stroke-linecap:butt;stroke-linejoin:miter;stroke-opacity:1"
     x="-350.57407"
     y="38.767025"
     id="text5156"
     sodipodi:linespacing="125%"
     transform="matrix(0,-1,1,0,0,0)"><tspan
       sodipodi:role="line"
       id="tspan5158"
       x="-350.57407"
       y="38.767025">dσ/dE (mb/MeV)</tspan></text>
<text
     xml:space="preserve"
     style="font-style:normal;font-variant:normal;font-weight:normal;font-stretch:normal;font-size:27.82208061px;line-height:125%;font-family:'Times New Roman';-inkscape-font-specification:'Times New Roman, Normal';text-align:start;letter-spacing:0px;word-spacing:0px;writing-mode:lr-tb;text-anchor:start;fill:#000000;fill-opacity:1;stroke:none;stroke-width:1px;stroke-linecap:butt;stroke-linejoin:miter;stroke-opacity:1"
     x="110.96674"
     y="125.51429"
     id="text5142"
     sodipodi:linespacing="125%"><tspan
       sodipodi:role="line"
       id="tspan5144"
       x="110.96674"
       y="125.51429"><tspan
   style="font-size:14.46748161px;baseline-shift:super"
   id="tspan5148">84</tspan>Se (d,p),  E<tspan
   style="font-size:14.46748161px;baseline-shift:sub"
   id="tspan5146">d</tspan>=90 MeV</tspan></text>
<text
     xml:space="preserve"
     style="font-style:normal;font-variant:normal;font-weight:normal;font-stretch:normal;font-size:27.82208061px;line-height:125%;font-family:'Times New Roman';-inkscape-font-specification:'Times New Roman, Normal';text-align:start;letter-spacing:0px;word-spacing:0px;writing-mode:lr-tb;text-anchor:start;fill:#000000;fill-opacity:1;stroke:none;stroke-width:1px;stroke-linecap:butt;stroke-linejoin:miter;stroke-opacity:1"
     x="348.33536"
     y="500.42508"
     id="text6306"
     sodipodi:linespacing="125%"><tspan
       sodipodi:role="line"
       id="tspan6308"
       x="348.33536"
       y="500.42508">E<tspan
   id="tspan6510"
   style="font-size:15.60000038px;baseline-shift:sub">n </tspan>(MeV)</tspan></text>
<text
     xml:space="preserve"
     style="font-style:normal;font-variant:normal;font-weight:normal;font-stretch:normal;font-size:27.82208061px;line-height:125%;font-family:'Times New Roman';-inkscape-font-specification:'Times New Roman, Normal';text-align:start;letter-spacing:0px;word-spacing:0px;writing-mode:lr-tb;text-anchor:start;fill:#000000;fill-opacity:1;stroke:none;stroke-width:1px;stroke-linecap:butt;stroke-linejoin:miter;stroke-opacity:1"
     x="77.777435"
     y="37.470413"
     id="text6312"
     sodipodi:linespacing="125%"><tspan
       sodipodi:role="line"
       id="tspan6314"
       x="77.777435"
       y="37.470413">proton singles, non-elastic breakup contribution</tspan></text>
</svg>