<?xml version="1.0" encoding="UTF-8" standalone="no"?>
<!-- generated by Grace-5.1.22 -->

<svg
   xmlns:dc="http://purl.org/dc/elements/1.1/"
   xmlns:cc="http://creativecommons.org/ns#"
   xmlns:rdf="http://www.w3.org/1999/02/22-rdf-syntax-ns#"
   xmlns:svg="http://www.w3.org/2000/svg"
   xmlns="http://www.w3.org/2000/svg"
   xmlns:sodipodi="http://sodipodi.sourceforge.net/DTD/sodipodi-0.dtd"
   xmlns:inkscape="http://www.inkscape.org/namespaces/inkscape"
   xml:space="preserve"
   width="11.0000in"
   height="8.5000in"
   viewBox="0.0000 0.0000 792.0000 612.0000"
   id="svg6512"
   version="1.1"
   inkscape:version="0.91 r13725"
   sodipodi:docname="Se84ProtonSpectrum_zoom_log.svg"><metadata
     id="metadata6974"><rdf:RDF><cc:Work
         rdf:about=""><dc:format>image/svg+xml</dc:format><dc:type
           rdf:resource="http://purl.org/dc/dcmitype/StillImage" /><dc:title></dc:title></cc:Work></rdf:RDF></metadata><defs
     id="defs6972" /><sodipodi:namedview
     pagecolor="#ffffff"
     bordercolor="#666666"
     borderopacity="1"
     objecttolerance="10"
     gridtolerance="10"
     guidetolerance="10"
     inkscape:pageopacity="0"
     inkscape:pageshadow="2"
     inkscape:window-width="1600"
     inkscape:window-height="1138"
     id="namedview6970"
     showgrid="false"
     inkscape:zoom="0.87256052"
     inkscape:cx="621.23671"
     inkscape:cy="303.28166"
     inkscape:window-x="-8"
     inkscape:window-y="-8"
     inkscape:window-maximized="1"
     inkscape:current-layer="svg6512" /><g
     id="g6524"
     style="fill:none;stroke:#000000;stroke-width:3.67199993;stroke-linecap:butt;stroke-linejoin:miter;stroke-dasharray:none"
     transform="matrix(1,0,0,-1,0,612)"><g
       id="g6526"
       transform="translate(398.4976,443.8386)"><path
         inkscape:connector-curvature="0"
         id="path6528"
         d="M 305.3636,21.4719 294.0084,20.6872 277.2107,19.3608 260.4122,17.8684 243.6136,16.2256 226.8159,14.4661 210.0174,12.6364 193.2188,10.7887 176.4211,8.973 159.6225,7.2277 142.8242,5.5651 126.0259,3.935 109.2276,2.1473 92.4293,-0.2588 75.631,-3.103 58.8327,-5.9497 42.0345,-8.538 25.2362,-10.9487 8.4379,-13.2048 l -16.7983,-2.1013 -16.7985,-1.932 -16.7977,-1.7369 -16.7986,-1.5037 -16.7985,-1.2182 -16.7977,-0.8643 -16.7986,-0.4213 -16.7985,0.1355 -16.7986,0.837 -16.7977,1.7179 -16.7985,2.8127 -16.7986,4.1457 -16.7977,5.6983 -16.7985,7.3539 -16.7986,8.8127 -16.7977,9.564 -16.7985,9.0639 -16.7986,6.8967 -12.8273,1.8703" /></g></g><g
     id="g6530"
     style="fill:none;stroke:#ff0000;stroke-width:3.67199993;stroke-linecap:butt;stroke-linejoin:miter;stroke-dasharray:none"
     transform="matrix(1,0,0,-1,0,612)"><g
       id="g6532"
       transform="translate(239.0738,190.3846)"><path
         inkscape:connector-curvature="0"
         id="path6534"
         d="m 149.3952,-98.6458 -15.1303,5.5555 -16.7977,6.9547 -16.7986,7.8361 -16.7985,8.8156 -16.7977,9.898 -16.7986,11.0879 -16.7985,12.3888 -16.7986,13.7969 -16.7977,15.2901 -16.7985,16.8095 -16.7986,18.218 -16.7977,19.2197 -16.7985,19.2357 -16.7986,17.2766 -16.7977,12.1039 -16.7985,3.197 -16.7986,-7.7969 -12.8273,-13.3949" /></g></g><g
     id="g6536"
     style="fill:none;stroke:#0000ff;stroke-width:3.67199993;stroke-linecap:butt;stroke-linejoin:miter;stroke-dasharray:none"
     transform="matrix(1,0,0,-1,0,612)"><g
       id="g6538"
       transform="translate(398.5109,186.0867)"><path
         inkscape:connector-curvature="0"
         id="path6540"
         d="m 305.3503,21.4858 -11.3552,1.466 -16.7977,2.3901 -16.7985,2.6477 -16.7986,2.9475 -16.7977,3.2929 -16.7985,3.6852 -16.7986,4.1154 -16.7977,4.5551 -16.7986,4.9285 -16.7983,5.05 -16.7983,4.4985 -16.7983,2.3634 L 92.4161,60.2029 75.6177,48.6639 58.8194,39.2067 42.0212,31.4247 25.2229,24.5171 8.4246,18.1535 -8.3737,12.1515 -25.1722,6.3952 -41.9699,0.804 l -16.7986,-5.4863 -16.7985,-5.4281 -16.7977,-5.4084 -16.7986,-5.4222 -16.7985,-5.4642 -16.7986,-5.5326 -16.7977,-5.6264 -16.7985,-5.7427 -16.7986,-5.8826 -16.7977,-6.046 -16.7985,-6.2334 -16.7986,-6.4449 -16.7977,-6.6828 -16.7985,-6.9486 -16.7986,-7.2455 -12.3226,-5.5572" /></g></g><g
     id="g6542"
     style="fill:none;stroke:#00ff00;stroke-width:3.67199993;stroke-linecap:butt;stroke-linejoin:miter;stroke-dasharray:none"
     transform="matrix(1,0,0,-1,0,612)"><g
       id="g6544"
       transform="translate(398.4976,281.8989)"><path
         inkscape:connector-curvature="0"
         id="path6546"
         d="m 305.3636,-42.9072 -11.3552,-0.7893 -16.7977,-1.1664 -16.7985,-1.1464 -16.7986,-1.102 -16.7977,-1.0247 -16.7985,-0.9039 -16.7986,-0.7257 -16.7977,-0.4756 -16.7986,-0.1436 -16.7983,0.2737 -16.7983,0.7652 -16.7983,1.2766 -16.7983,1.6709 -16.7983,2.5257 -16.7983,2.0334 -16.7982,2.3091 -16.7983,2.6366 -16.7983,3.0097 -16.7983,3.4294 -16.7985,3.8984 -16.7977,4.4223 -16.7986,5.006 -16.7985,5.6569 -16.7977,6.3828 -16.7986,7.1925 -16.7985,8.0964 -16.7986,9.1055 -16.7977,10.2302 -16.7985,11.4779 -16.7986,12.8484 -16.7977,14.3206 -16.7985,15.8243 -16.7986,17.1917 -16.7977,18.0479 -16.7985,17.648 -16.7986,14.749 -12.8273,6.0833" /></g></g><g
     id="g6548"
     style="fill:none;stroke:#000000;stroke-width:3.67199993;stroke-linecap:butt;stroke-linejoin:miter;stroke-dasharray:4, 11"
     transform="matrix(1,0,0,-1,0,612)"><g
       id="g6550"
       transform="translate(398.4976,230.5488)"><path
         inkscape:connector-curvature="0"
         id="path6552"
         d="m 305.3636,67.1559 -11.3552,0.5479 -16.7977,-0.1073 -16.7985,-1.0673 -16.7986,-1.9906 -16.7977,-2.8068 -16.7985,-3.4687 -16.7986,-3.9598 -16.7977,-4.2874 -16.7986,-4.47 L 142.8242,41.0134 126.0259,36.4992 109.2276,32.0379 92.4293,27.6582 75.631,23.8882 58.8327,19.6139 42.0345,15.3543 25.2362,11.0901 8.4379,6.8043 -8.3604,2.4816 l -16.7985,-4.3739 -16.7977,-4.439 -16.7986,-4.5172 -16.7985,-4.6092 -16.7977,-4.7143 -16.7986,-4.8331 -16.7985,-4.9662 -16.7986,-5.1134 -16.7977,-5.2761 -16.7985,-5.455 -16.7986,-5.6509 -16.7977,-5.8649 -16.7985,-6.0993 -16.7986,-6.3544 -16.7977,-6.6336 -16.7985,-6.939 -16.7986,-7.2726 -12.8273,-5.8334" /></g></g><g
     id="g6554"
     style="fill:none;stroke:#9400d3;stroke-width:3.67199993;stroke-linecap:butt;stroke-linejoin:miter;stroke-dasharray:none"
     transform="matrix(1,0,0,-1,0,612)"><g
       id="g6556"
       transform="translate(398.4976,257.5649)"><path
         inkscape:connector-curvature="0"
         id="path6558"
         d="M 305.3636,9.6759 294.0084,8.9693 277.2107,7.9453 260.4122,6.9456 243.6136,5.9722 226.8159,5.0245 210.0174,4.0995 193.2188,3.1945 176.4211,2.3131 159.6225,1.4613 142.8242,0.6359 126.0259,-0.1741 109.2276,-0.9627 92.4293,-1.7105 75.631,-1.8182 58.8327,-2.4906 42.0345,-3.1235 25.2362,-3.7118 8.4379,-4.2503 -8.3604,-4.7323 -25.1589,-5.1507 -41.9566,-5.497 -58.7552,-5.7622 -75.5537,-5.9358 -92.3514,-6.006 l -16.7986,0.0465 -16.7985,0.178 -16.7986,0.326 -16.7977,0.4926 -16.7985,0.6805 -16.7986,0.8918 -16.7977,1.13 -16.7985,1.3986 -16.7986,1.702 -16.7977,2.0458 -16.7985,2.436 -16.7986,2.8811 -12.8273,2.5901" /></g></g><g
     id="g6560"
     style="fill:none;stroke:#000000;stroke-width:0.91799998;stroke-linecap:butt;stroke-linejoin:miter;stroke-dasharray:none"
     transform="matrix(1,0,0,-1,0,612)"><g
       id="g6562"
       transform="translate(397.8,91.8)"><path
         inkscape:connector-curvature="0"
         id="path6564"
         d="M -306,0 306,0" /></g><g
       id="g6566"
       transform="translate(397.8,520.2)"><path
         inkscape:connector-curvature="0"
         id="path6568"
         d="M -306,0 306,0" /></g><g
       id="g6570"
       transform="translate(100.3,94.86)"><path
         inkscape:connector-curvature="0"
         id="path6572"
         d="M 0,-3.06 0,3.06" /></g><g
       id="g6574"
       transform="translate(100.3,517.14)"><path
         inkscape:connector-curvature="0"
         id="path6576"
         d="M 0,3.06 0,-3.06" /></g><g
       id="g6578"
       transform="translate(185.3,94.86)"><path
         inkscape:connector-curvature="0"
         id="path6580"
         d="M 0,-3.06 0,3.06" /></g><g
       id="g6582"
       transform="translate(185.3,517.14)"><path
         inkscape:connector-curvature="0"
         id="path6584"
         d="M 0,3.06 0,-3.06" /></g><g
       id="g6586"
       transform="translate(270.3,94.86)"><path
         inkscape:connector-curvature="0"
         id="path6588"
         d="M 0,-3.06 0,3.06" /></g><g
       id="g6590"
       transform="translate(270.3,517.14)"><path
         inkscape:connector-curvature="0"
         id="path6592"
         d="M 0,3.06 0,-3.06" /></g><g
       id="g6594"
       transform="translate(355.3,94.86)"><path
         inkscape:connector-curvature="0"
         id="path6596"
         d="M 0,-3.06 0,3.06" /></g><g
       id="g6598"
       transform="translate(355.3,517.14)"><path
         inkscape:connector-curvature="0"
         id="path6600"
         d="M 0,3.06 0,-3.06" /></g><g
       id="g6602"
       transform="translate(440.3,94.86)"><path
         inkscape:connector-curvature="0"
         id="path6604"
         d="M 0,-3.06 0,3.06" /></g><g
       id="g6606"
       transform="translate(440.3,517.14)"><path
         inkscape:connector-curvature="0"
         id="path6608"
         d="M 0,3.06 0,-3.06" /></g><g
       id="g6610"
       transform="translate(525.3,94.86)"><path
         inkscape:connector-curvature="0"
         id="path6612"
         d="M 0,-3.06 0,3.06" /></g><g
       id="g6614"
       transform="translate(525.3,517.14)"><path
         inkscape:connector-curvature="0"
         id="path6616"
         d="M 0,3.06 0,-3.06" /></g><g
       id="g6618"
       transform="translate(610.3,94.86)"><path
         inkscape:connector-curvature="0"
         id="path6620"
         d="M 0,-3.06 0,3.06" /></g><g
       id="g6622"
       transform="translate(610.3,517.14)"><path
         inkscape:connector-curvature="0"
         id="path6624"
         d="M 0,3.06 0,-3.06" /></g><g
       id="g6626"
       transform="translate(695.3,94.86)"><path
         inkscape:connector-curvature="0"
         id="path6628"
         d="M 0,-3.06 0,3.06" /></g><g
       id="g6630"
       transform="translate(695.3,517.14)"><path
         inkscape:connector-curvature="0"
         id="path6632"
         d="M 0,3.06 0,-3.06" /></g><g
       id="g6634"
       transform="translate(142.8,97.92)"><path
         inkscape:connector-curvature="0"
         id="path6636"
         d="M 0,-6.12 0,6.12" /></g><g
       id="g6638"
       transform="translate(142.8,514.08)"><path
         inkscape:connector-curvature="0"
         id="path6640"
         d="M 0,6.12 0,-6.12" /></g><g
       id="g6642"
       transform="translate(227.8,97.92)"><path
         inkscape:connector-curvature="0"
         id="path6644"
         d="M 0,-6.12 0,6.12" /></g><g
       id="g6646"
       transform="translate(227.8,514.08)"><path
         inkscape:connector-curvature="0"
         id="path6648"
         d="M 0,6.12 0,-6.12" /></g><g
       id="g6650"
       transform="translate(312.8,97.92)"><path
         inkscape:connector-curvature="0"
         id="path6652"
         d="M 0,-6.12 0,6.12" /></g><g
       id="g6654"
       transform="translate(312.8,514.08)"><path
         inkscape:connector-curvature="0"
         id="path6656"
         d="M 0,6.12 0,-6.12" /></g><g
       id="g6658"
       transform="translate(397.8,97.92)"><path
         inkscape:connector-curvature="0"
         id="path6660"
         d="M 0,-6.12 0,6.12" /></g><g
       id="g6662"
       transform="translate(397.8,514.08)"><path
         inkscape:connector-curvature="0"
         id="path6664"
         d="M 0,6.12 0,-6.12" /></g><g
       id="g6666"
       transform="translate(482.8,97.92)"><path
         inkscape:connector-curvature="0"
         id="path6668"
         d="M 0,-6.12 0,6.12" /></g><g
       id="g6670"
       transform="translate(482.8,514.08)"><path
         inkscape:connector-curvature="0"
         id="path6672"
         d="M 0,6.12 0,-6.12" /></g><g
       id="g6674"
       transform="translate(567.8,97.92)"><path
         inkscape:connector-curvature="0"
         id="path6676"
         d="M 0,-6.12 0,6.12" /></g><g
       id="g6678"
       transform="translate(567.8,514.08)"><path
         inkscape:connector-curvature="0"
         id="path6680"
         d="M 0,6.12 0,-6.12" /></g><g
       id="g6682"
       transform="translate(652.8,97.92)"><path
         inkscape:connector-curvature="0"
         id="path6684"
         d="M 0,-6.12 0,6.12" /></g><g
       id="g6686"
       transform="translate(652.8,514.08)"><path
         inkscape:connector-curvature="0"
         id="path6688"
         d="M 0,6.12 0,-6.12" /></g></g><g
     id="g6690"
     style="fill:#000000;fill-rule:nonzero"
     transform="matrix(1,0,0,-1,0,612)"><text
       id="text6692"
       transform="matrix(0.028,0,0,-0.028,135.8,73.68)"
       style="font-style:normal;font-weight:normal;font-size:612px;font-family:Times, 'Nimbus Roman No9 L'">-4</text>
<text
       id="text6694"
       transform="matrix(0.028,0,0,-0.028,221.3,73.68)"
       style="font-style:normal;font-weight:normal;font-size:612px;font-family:Times, 'Nimbus Roman No9 L'">-3</text>
<text
       id="text6696"
       transform="matrix(0.028,0,0,-0.028,305.8,73.68)"
       style="font-style:normal;font-weight:normal;font-size:612px;font-family:Times, 'Nimbus Roman No9 L'">-2</text>
<text
       id="text6698"
       transform="matrix(0.028,0,0,-0.028,391.3,73.68)"
       style="font-style:normal;font-weight:normal;font-size:612px;font-family:Times, 'Nimbus Roman No9 L'">-1</text>
<text
       id="text6700"
       transform="matrix(0.028,0,0,-0.028,478.8,73.68)"
       style="font-style:normal;font-weight:normal;font-size:612px;font-family:Times, 'Nimbus Roman No9 L'">0</text>
<text
       id="text6702"
       transform="matrix(0.028,0,0,-0.028,564.3,73.68)"
       style="font-style:normal;font-weight:normal;font-size:612px;font-family:Times, 'Nimbus Roman No9 L'">1</text>
<text
       id="text6704"
       transform="matrix(0.028,0,0,-0.028,648.8,73.68)"
       style="font-style:normal;font-weight:normal;font-size:612px;font-family:Times, 'Nimbus Roman No9 L'">2</text>
</g><g
     id="g6706"
     style="fill:none;stroke:#000000;stroke-width:0.91799998;stroke-linecap:butt;stroke-linejoin:miter;stroke-dasharray:none"
     transform="matrix(1,0,0,-1,0,612)"><g
       id="g6708"
       transform="translate(91.8,306)"><path
         inkscape:connector-curvature="0"
         id="path6710"
         d="M 0,-214.2 0,214.2" /></g><g
       id="g6712"
       transform="translate(703.8,306)"><path
         inkscape:connector-curvature="0"
         id="path6714"
         d="M 0,-214.2 0,214.2" /></g><g
       id="g6716"
       transform="translate(94.86,156.2806)"><path
         inkscape:connector-curvature="0"
         id="path6718"
         d="M -3.06,0 3.06,0" /></g><g
       id="g6720"
       transform="translate(700.74,156.2806)"><path
         inkscape:connector-curvature="0"
         id="path6722"
         d="M 3.06,0 -3.06,0" /></g><g
       id="g6724"
       transform="translate(94.86,193.9994)"><path
         inkscape:connector-curvature="0"
         id="path6726"
         d="M -3.06,0 3.06,0" /></g><g
       id="g6728"
       transform="translate(700.74,193.9994)"><path
         inkscape:connector-curvature="0"
         id="path6730"
         d="M 3.06,0 -3.06,0" /></g><g
       id="g6732"
       transform="translate(94.86,220.7613)"><path
         inkscape:connector-curvature="0"
         id="path6734"
         d="M -3.06,0 3.06,0" /></g><g
       id="g6736"
       transform="translate(700.74,220.7613)"><path
         inkscape:connector-curvature="0"
         id="path6738"
         d="M 3.06,0 -3.06,0" /></g><g
       id="g6740"
       transform="translate(94.86,241.5194)"><path
         inkscape:connector-curvature="0"
         id="path6742"
         d="M -3.06,0 3.06,0" /></g><g
       id="g6744"
       transform="translate(700.74,241.5194)"><path
         inkscape:connector-curvature="0"
         id="path6746"
         d="M 3.06,0 -3.06,0" /></g><g
       id="g6748"
       transform="translate(94.86,258.48)"><path
         inkscape:connector-curvature="0"
         id="path6750"
         d="M -3.06,0 3.06,0" /></g><g
       id="g6752"
       transform="translate(700.74,258.48)"><path
         inkscape:connector-curvature="0"
         id="path6754"
         d="M 3.06,0 -3.06,0" /></g><g
       id="g6756"
       transform="translate(94.86,272.82)"><path
         inkscape:connector-curvature="0"
         id="path6758"
         d="M -3.06,0 3.06,0" /></g><g
       id="g6760"
       transform="translate(700.74,272.82)"><path
         inkscape:connector-curvature="0"
         id="path6762"
         d="M 3.06,0 -3.06,0" /></g><g
       id="g6764"
       transform="translate(94.86,285.2419)"><path
         inkscape:connector-curvature="0"
         id="path6766"
         d="M -3.06,0 3.06,0" /></g><g
       id="g6768"
       transform="translate(700.74,285.2419)"><path
         inkscape:connector-curvature="0"
         id="path6770"
         d="M 3.06,0 -3.06,0" /></g><g
       id="g6772"
       transform="translate(94.86,296.1987)"><path
         inkscape:connector-curvature="0"
         id="path6774"
         d="M -3.06,0 3.06,0" /></g><g
       id="g6776"
       transform="translate(700.74,296.1987)"><path
         inkscape:connector-curvature="0"
         id="path6778"
         d="M 3.06,0 -3.06,0" /></g><g
       id="g6780"
       transform="translate(94.86,306)"><path
         inkscape:connector-curvature="0"
         id="path6782"
         d="M -3.06,0 3.06,0" /></g><g
       id="g6784"
       transform="translate(700.74,306)"><path
         inkscape:connector-curvature="0"
         id="path6786"
         d="M 3.06,0 -3.06,0" /></g><g
       id="g6788"
       transform="translate(94.86,370.4806)"><path
         inkscape:connector-curvature="0"
         id="path6790"
         d="M -3.06,0 3.06,0" /></g><g
       id="g6792"
       transform="translate(700.74,370.4806)"><path
         inkscape:connector-curvature="0"
         id="path6794"
         d="M 3.06,0 -3.06,0" /></g><g
       id="g6796"
       transform="translate(94.86,408.1994)"><path
         inkscape:connector-curvature="0"
         id="path6798"
         d="M -3.06,0 3.06,0" /></g><g
       id="g6800"
       transform="translate(700.74,408.1994)"><path
         inkscape:connector-curvature="0"
         id="path6802"
         d="M 3.06,0 -3.06,0" /></g><g
       id="g6804"
       transform="translate(94.86,434.9613)"><path
         inkscape:connector-curvature="0"
         id="path6806"
         d="M -3.06,0 3.06,0" /></g><g
       id="g6808"
       transform="translate(700.74,434.9613)"><path
         inkscape:connector-curvature="0"
         id="path6810"
         d="M 3.06,0 -3.06,0" /></g><g
       id="g6812"
       transform="translate(94.86,455.7194)"><path
         inkscape:connector-curvature="0"
         id="path6814"
         d="M -3.06,0 3.06,0" /></g><g
       id="g6816"
       transform="translate(700.74,455.7194)"><path
         inkscape:connector-curvature="0"
         id="path6818"
         d="M 3.06,0 -3.06,0" /></g><g
       id="g6820"
       transform="translate(94.86,472.68)"><path
         inkscape:connector-curvature="0"
         id="path6822"
         d="M -3.06,0 3.06,0" /></g><g
       id="g6824"
       transform="translate(700.74,472.68)"><path
         inkscape:connector-curvature="0"
         id="path6826"
         d="M 3.06,0 -3.06,0" /></g><g
       id="g6828"
       transform="translate(94.86,487.02)"><path
         inkscape:connector-curvature="0"
         id="path6830"
         d="M -3.06,0 3.06,0" /></g><g
       id="g6832"
       transform="translate(700.74,487.02)"><path
         inkscape:connector-curvature="0"
         id="path6834"
         d="M 3.06,0 -3.06,0" /></g><g
       id="g6836"
       transform="translate(94.86,499.4419)"><path
         inkscape:connector-curvature="0"
         id="path6838"
         d="M -3.06,0 3.06,0" /></g><g
       id="g6840"
       transform="translate(700.74,499.4419)"><path
         inkscape:connector-curvature="0"
         id="path6842"
         d="M 3.06,0 -3.06,0" /></g><g
       id="g6844"
       transform="translate(94.86,510.3987)"><path
         inkscape:connector-curvature="0"
         id="path6846"
         d="M -3.06,0 3.06,0" /></g><g
       id="g6848"
       transform="translate(700.74,510.3987)"><path
         inkscape:connector-curvature="0"
         id="path6850"
         d="M 3.06,0 -3.06,0" /></g><g
       id="g6852"
       transform="translate(94.86,520.2)"><path
         inkscape:connector-curvature="0"
         id="path6854"
         d="M -3.06,0 3.06,0" /></g><g
       id="g6856"
       transform="translate(700.74,520.2)"><path
         inkscape:connector-curvature="0"
         id="path6858"
         d="M 3.06,0 -3.06,0" /></g><g
       id="g6860"
       transform="translate(97.92,91.8)"><path
         inkscape:connector-curvature="0"
         id="path6862"
         d="M -6.12,0 6.12,0" /></g><g
       id="g6864"
       transform="translate(697.68,91.8)"><path
         inkscape:connector-curvature="0"
         id="path6866"
         d="M 6.12,0 -6.12,0" /></g><g
       id="g6868"
       transform="translate(97.92,306)"><path
         inkscape:connector-curvature="0"
         id="path6870"
         d="M -6.12,0 6.12,0" /></g><g
       id="g6872"
       transform="translate(697.68,306)"><path
         inkscape:connector-curvature="0"
         id="path6874"
         d="M 6.12,0 -6.12,0" /></g><g
       id="g6876"
       transform="translate(97.92,520.2)"><path
         inkscape:connector-curvature="0"
         id="path6878"
         d="M -6.12,0 6.12,0" /></g><g
       id="g6880"
       transform="translate(697.68,520.2)"><path
         inkscape:connector-curvature="0"
         id="path6882"
         d="M 6.12,0 -6.12,0" /></g></g><g
     id="g6884"
     style="fill:#000000;fill-rule:nonzero"
     transform="matrix(1,0,0,-1,0,612)"><text
       id="text6886"
       transform="matrix(0.028,0,0,-0.028,65.68,85.8)"
       style="font-style:normal;font-weight:normal;font-size:612px;font-family:Times, 'Nimbus Roman No9 L'">0.1</text>
<text
       id="text6888"
       transform="matrix(0.028,0,0,-0.028,78.68,300)"
       style="font-style:normal;font-weight:normal;font-size:612px;font-family:Times, 'Nimbus Roman No9 L'">1</text>
<text
       id="text6890"
       transform="matrix(0.028,0,0,-0.028,68.68,514.2)"
       style="font-style:normal;font-weight:normal;font-size:612px;font-family:Times, 'Nimbus Roman No9 L'">10</text>
</g><g
     id="g6892"
     style="fill:none;stroke:#000000;stroke-width:0.91799998;stroke-linecap:butt;stroke-linejoin:miter;stroke-dasharray:none"
     transform="matrix(1,0,0,-1,0,612)"><g
       id="g6894"
       transform="translate(397.8,306)"><path
         inkscape:connector-curvature="0"
         id="path6896"
         d="m -306,-214.2 0,428.4 612,0 0,-428.4 z" /></g></g><g
     id="g8020"
     transform="translate(0,53.176827)"><g
       id="g6900"
       transform="matrix(1,0,0,-1,560.598,179.82)"
       style="fill:#ffffff;fill-rule:nonzero"><path
         inkscape:connector-curvature="0"
         id="path6902"
         d="m -40.398,57.42 0,-114.84 80.796,0 0,114.84 z" /></g><g
       id="g6906"
       transform="matrix(1,0,0,-1,560.598,179.82)"
       style="fill:none;stroke:#000000;stroke-width:0.91799998;stroke-linecap:butt;stroke-linejoin:miter;stroke-dasharray:none"><path
         inkscape:connector-curvature="0"
         id="path6908"
         d="m -40.398,57.42 0,-114.84 80.796,0 0,114.84 z" /></g><text
       y="140.52"
       x="564.87598"
       id="text6912"
       style="font-style:normal;font-weight:normal;font-size:17.13599968px;font-family:Times, 'Nimbus Roman No9 L';fill:#000000;fill-rule:nonzero">total</text>
<g
       id="g6916"
       transform="matrix(1,0,0,-1,540.396,134.52)"
       style="fill:none;stroke:#000000;stroke-width:3.67199993;stroke-linecap:butt;stroke-linejoin:miter;stroke-dasharray:none"><path
         inkscape:connector-curvature="0"
         id="path6918"
         d="M -12.24,0 12.24,0" /></g><text
       y="158.64"
       x="564.87598"
       id="text6922"
       style="font-style:normal;font-weight:normal;font-size:17.13599968px;font-family:Times, 'Nimbus Roman No9 L';fill:#000000;fill-rule:nonzero">L=0</text>
<g
       id="g6926"
       transform="matrix(1,0,0,-1,540.396,152.64)"
       style="fill:none;stroke:#ff0000;stroke-width:3.67199993;stroke-linecap:butt;stroke-linejoin:miter;stroke-dasharray:none"><path
         inkscape:connector-curvature="0"
         id="path6928"
         d="M -12.24,0 12.24,0" /></g><text
       y="176.75999"
       x="564.87598"
       id="text6932"
       style="font-style:normal;font-weight:normal;font-size:17.13599968px;font-family:Times, 'Nimbus Roman No9 L';fill:#000000;fill-rule:nonzero">L=1</text>
<g
       id="g6936"
       transform="matrix(1,0,0,-1,540.396,170.76)"
       style="fill:none;stroke:#0000ff;stroke-width:3.67199993;stroke-linecap:butt;stroke-linejoin:miter;stroke-dasharray:none"><path
         inkscape:connector-curvature="0"
         id="path6938"
         d="M -12.24,0 12.24,0" /></g><text
       y="194.88"
       x="564.87598"
       id="text6942"
       style="font-style:normal;font-weight:normal;font-size:17.13599968px;font-family:Times, 'Nimbus Roman No9 L';fill:#000000;fill-rule:nonzero">L=2</text>
<g
       id="g6946"
       transform="matrix(1,0,0,-1,540.396,188.88)"
       style="fill:none;stroke:#00ff00;stroke-width:3.67199993;stroke-linecap:butt;stroke-linejoin:miter;stroke-dasharray:none"><path
         inkscape:connector-curvature="0"
         id="path6948"
         d="M -12.24,0 12.24,0" /></g><text
       y="213"
       x="564.87598"
       id="text6952"
       style="font-style:normal;font-weight:normal;font-size:17.13599968px;font-family:Times, 'Nimbus Roman No9 L';fill:#000000;fill-rule:nonzero">L=3</text>
<g
       id="g6956"
       transform="matrix(1,0,0,-1,540.396,207)"
       style="fill:none;stroke:#000000;stroke-width:3.67199993;stroke-linecap:butt;stroke-linejoin:miter;stroke-dasharray:4, 11"><path
         inkscape:connector-curvature="0"
         id="path6958"
         d="M -12.24,0 12.24,0" /></g><text
       y="231.12"
       x="564.87598"
       id="text6962"
       style="font-style:normal;font-weight:normal;font-size:17.13599968px;font-family:Times, 'Nimbus Roman No9 L';fill:#000000;fill-rule:nonzero">L=4</text>
<g
       id="g6966"
       transform="matrix(1,0,0,-1,540.396,225.12)"
       style="fill:none;stroke:#9400d3;stroke-width:3.67199993;stroke-linecap:butt;stroke-linejoin:miter;stroke-dasharray:none"><path
         inkscape:connector-curvature="0"
         id="path6968"
         d="M -12.24,0 12.24,0" /></g></g><text
     xml:space="preserve"
     style="font-style:normal;font-variant:normal;font-weight:normal;font-stretch:normal;font-size:27.8220787px;line-height:125%;font-family:'Times New Roman';-inkscape-font-specification:'Times New Roman, Normal';text-align:start;letter-spacing:0px;word-spacing:0px;writing-mode:lr-tb;text-anchor:start;fill:#000000;fill-opacity:1;stroke:none;stroke-width:1px;stroke-linecap:butt;stroke-linejoin:miter;stroke-opacity:1"
     x="-383.93726"
     y="70.843895"
     id="text5156"
     sodipodi:linespacing="125%"
     transform="matrix(0,-1,1,0,0,0)"><tspan
       sodipodi:role="line"
       id="tspan5158"
       x="-383.93726"
       y="70.843895">dσ/dE (mb/MeV)</tspan></text>
<text
     xml:space="preserve"
     style="font-style:normal;font-variant:normal;font-weight:normal;font-stretch:normal;font-size:27.8220787px;line-height:125%;font-family:'Times New Roman';-inkscape-font-specification:'Times New Roman, Normal';text-align:start;letter-spacing:0px;word-spacing:0px;writing-mode:lr-tb;text-anchor:start;fill:#000000;fill-opacity:1;stroke:none;stroke-width:1px;stroke-linecap:butt;stroke-linejoin:miter;stroke-opacity:1"
     x="188.88568"
     y="146.95856"
     id="text5142"
     sodipodi:linespacing="125%"><tspan
       sodipodi:role="line"
       id="tspan5144"
       x="188.88568"
       y="146.95856"><tspan
   style="font-size:14.46748066px;baseline-shift:super"
   id="tspan5148">84</tspan>Se (d,p),  E<tspan
   style="font-size:14.46748066px;baseline-shift:sub"
   id="tspan5146">d</tspan>=90 MeV</tspan></text>
<text
     xml:space="preserve"
     style="font-style:normal;font-variant:normal;font-weight:normal;font-stretch:normal;font-size:27.8220787px;line-height:125%;font-family:'Times New Roman';-inkscape-font-specification:'Times New Roman, Normal';text-align:start;letter-spacing:0px;word-spacing:0px;writing-mode:lr-tb;text-anchor:start;fill:#000000;fill-opacity:1;stroke:none;stroke-width:1px;stroke-linecap:butt;stroke-linejoin:miter;stroke-opacity:1"
     x="369.41006"
     y="570.46191"
     id="text6306"
     sodipodi:linespacing="125%"><tspan
       sodipodi:role="line"
       id="tspan6308"
       x="369.41006"
       y="570.46191">E<tspan
   id="tspan6510"
   style="font-size:15.60000038px;baseline-shift:sub">n </tspan>(MeV)</tspan></text>
<text
     xml:space="preserve"
     style="font-style:normal;font-variant:normal;font-weight:normal;font-stretch:normal;font-size:27.8220787px;line-height:125%;font-family:'Times New Roman';-inkscape-font-specification:'Times New Roman, Normal';text-align:start;letter-spacing:0px;word-spacing:0px;writing-mode:lr-tb;text-anchor:start;fill:#000000;fill-opacity:1;stroke:none;stroke-width:1px;stroke-linecap:butt;stroke-linejoin:miter;stroke-opacity:1"
     x="144.69424"
     y="69.916771"
     id="text6312"
     sodipodi:linespacing="125%"><tspan
       sodipodi:role="line"
       id="tspan6314"
       x="144.69424"
       y="69.916771">proton singles, non-elastic breakup contribution</tspan></text>
</svg>