<?xml version="1.0" encoding="UTF-8" standalone="no"?>
<!-- generated by Grace-5.1.22 -->

<svg
   xmlns:dc="http://purl.org/dc/elements/1.1/"
   xmlns:cc="http://creativecommons.org/ns#"
   xmlns:rdf="http://www.w3.org/1999/02/22-rdf-syntax-ns#"
   xmlns:svg="http://www.w3.org/2000/svg"
   xmlns="http://www.w3.org/2000/svg"
   xmlns:sodipodi="http://sodipodi.sourceforge.net/DTD/sodipodi-0.dtd"
   xmlns:inkscape="http://www.inkscape.org/namespaces/inkscape"
   xml:space="preserve"
   width="9.4785118in"
   height="7.0828686in"
   viewBox="0 0 682.45285 509.96654"
   id="svg4136"
   version="1.1"
   inkscape:version="0.91 r13725"
   sodipodi:docname="Se84ProtonSpectrum.svg"><metadata
     id="metadata4466"><rdf:RDF><cc:Work
         rdf:about=""><dc:format>image/svg+xml</dc:format><dc:type
           rdf:resource="http://purl.org/dc/dcmitype/StillImage" /><dc:title></dc:title></cc:Work></rdf:RDF></metadata><defs
     id="defs4464"><marker
       inkscape:stockid="Arrow1Mstart"
       orient="auto"
       refY="0"
       refX="0"
       id="Arrow1Mstart"
       style="overflow:visible"
       inkscape:isstock="true"><path
         id="path4670"
         d="M 0,0 5,-5 -12.5,0 5,5 0,0 Z"
         style="fill:#000000;fill-opacity:1;fill-rule:evenodd;stroke:#000000;stroke-width:1pt;stroke-opacity:1"
         transform="matrix(0.4,0,0,0.4,4,0)"
         inkscape:connector-curvature="0" /></marker><marker
       inkscape:stockid="Arrow1Lstart"
       orient="auto"
       refY="0"
       refX="0"
       id="Arrow1Lstart"
       style="overflow:visible"
       inkscape:isstock="true"><path
         id="path4664"
         d="M 0,0 5,-5 -12.5,0 5,5 0,0 Z"
         style="fill:#000000;fill-opacity:1;fill-rule:evenodd;stroke:#000000;stroke-width:1pt;stroke-opacity:1"
         transform="matrix(0.8,0,0,0.8,10,0)"
         inkscape:connector-curvature="0" /></marker></defs><sodipodi:namedview
     pagecolor="#ffffff"
     bordercolor="#666666"
     borderopacity="1"
     objecttolerance="10"
     gridtolerance="10"
     guidetolerance="10"
     inkscape:pageopacity="0"
     inkscape:pageshadow="2"
     inkscape:window-width="1600"
     inkscape:window-height="1138"
     id="namedview4462"
     showgrid="false"
     showborder="false"
     inkscape:zoom="0.5959596"
     inkscape:cx="476.55418"
     inkscape:cy="363.03033"
     inkscape:window-x="-8"
     inkscape:window-y="-8"
     inkscape:window-maximized="1"
     inkscape:current-layer="svg4136"
     fit-margin-top="0"
     fit-margin-left="0"
     fit-margin-right="0"
     fit-margin-bottom="0" /><g
     id="g4148"
     style="fill:none;stroke:#000000;stroke-width:3.67199993;stroke-linecap:butt;stroke-linejoin:miter;stroke-dasharray:none"
     transform="matrix(1,0,0,-1,-23.207317,530.05546)"><g
       id="g4150"
       transform="translate(311.3688,192.999)"><path
         inkscape:connector-curvature="0"
         id="path4152"
         d="m -199.8269,-101.0639 3.2903,0.2956 3.2903,0.6236 3.2904,1.0732 3.2903,1.5619 3.2903,1.9571 3.2903,2.1571 3.2904,2.1647 3.2903,2.0547 3.2903,1.895 3.2903,1.7206 3.2903,1.5484 3.2904,1.3923 3.2903,1.2636 3.2903,1.1674 3.2903,1.103 3.2904,1.0648 3.2903,1.046 3.2903,1.039 3.2903,1.0391 3.2903,1.0432 3.2904,1.0489 3.2903,1.0569 3.2903,1.0678 3.2903,1.0828 3.2904,1.1024 3.2903,1.1278 3.2903,1.1593 3.2903,1.1956 3.2903,1.237 3.2904,1.2822 3.2903,1.3311 3.2903,1.3831 3.2903,1.4392 3.2904,1.5006 3.2903,1.5686 3.2903,1.6459 3.2903,1.7351 3.2904,1.8374 3.2903,1.9567 6.5806,4.345 6.5807,5.0607 6.5806,5.9604 6.5807,7.0555 6.5806,8.3527 6.5806,9.853 6.5807,11.5454 6.5806,13.3999 6.5807,15.3596 6.5806,17.3365 6.5807,19.2146 6.5806,20.858 6.5807,22.126 6.5806,22.8885 6.5807,23.0351 13.1612,43.7139 13.1613,35.7307 13.1613,22.6688 13.1613,6.5802 13.1613,-9.5383 13.1613,-22.7116 13.1613,-31.0076 13.1613,-34.0171 13.1613,-32.6569 13.1613,-28.5265 13.1612,-23.197 13.1613,-17.7889 13.1613,-12.9184 13.1613,-8.8454 13.1613,-5.6281 13.1613,-3.3225 13.1613,-2.1957 13.1613,-2.4126 13.1613,-3.095 13.1613,-3.2459 13.1612,-3.1152 13.1613,-4.0708 13.1613,-8.8428 13.1613,-20.8211 13.1613,-24.9616 13.1613,-6.6207 13.1613,46.5996" /></g></g><g
     id="g4154"
     style="fill:none;stroke:#ff0000;stroke-width:3.67199993;stroke-linecap:butt;stroke-linejoin:miter;stroke-dasharray:none"
     transform="matrix(1,0,0,-1,-23.207317,530.05546)"><g
       id="g4156"
       transform="translate(311.3688,132.3289)"><path
         inkscape:connector-curvature="0"
         id="path4158"
         d="m -199.8269,-40.4493 3.2903,0.1724 3.2903,0.3569 3.2904,0.6013 3.2903,0.8595 3.2903,1.0641 3.2903,1.1626 3.2904,1.1513 3.2903,1.0662 3.2903,0.9474 3.2903,0.8225 3.2903,0.7092 3.2904,0.6175 3.2903,0.5523 3.2903,0.5127 3.2903,0.4947 3.2904,0.4923 3.2903,0.4993 3.2903,0.5104 3.2903,0.5214 3.2903,0.5301 3.2904,0.536 3.2903,0.5393 3.2903,0.5413 3.2903,0.5435 3.2904,0.5474 3.2903,0.554 3.2903,0.564 3.2903,0.5773 3.2903,0.5944 3.2904,0.6143 3.2903,0.6371 3.2903,0.6624 3.2903,0.6903 3.2904,0.7211 3.2903,0.7552 3.2903,0.7945 3.2903,0.8395 3.2904,0.8917 3.2903,0.9529 6.5806,2.1305 6.5807,2.51 6.5806,2.9951 6.5807,3.5917 6.5806,4.301 6.5806,5.1174 6.5807,6.0289 6.5806,7.0099 6.5807,8.0205 6.5806,9.0033 6.5807,9.8883 6.5806,10.6007 6.5807,11.0686 6.5806,11.2309 6.5807,11.0455 13.1612,20.0386 13.1613,14.8717 13.1613,7.316 13.1613,-1.4581 13.1613,-9.8514 13.1613,-16.3467 13.1613,-20.0389 13.1613,-20.8521 13.1613,-19.3815 13.1613,-16.5204 13.1612,-13.0929 13.1613,-9.6735 13.1613,-6.6276 13.1613,-4.194 13.1613,-2.4657 13.1613,-1.3948 13.1613,-0.9297 13.1613,-0.9999 13.1613,-1.2959 13.1613,-1.6984 13.1612,-2.4601 13.1613,-3.0279 13.1613,-3.6259 13.1613,-8.2566 13.1613,-8.8565 13.1613,0 13.1613,0" /></g></g><g
     id="g4160"
     style="fill:none;stroke:#0000ff;stroke-width:3.67199993;stroke-linecap:butt;stroke-linejoin:miter;stroke-dasharray:none"
     transform="matrix(1,0,0,-1,-23.207317,530.05546)"><g
       id="g4162"
       transform="translate(311.3688,152.4701)"><path
         inkscape:connector-curvature="0"
         id="path4164"
         d="m -199.8269,-60.6147 3.2903,0.1233 3.2903,0.2667 3.2904,0.4719 3.2903,0.7024 3.2903,0.893 3.2903,0.9945 3.2904,1.0134 3.2903,0.9884 3.2903,0.9478 3.2903,0.898 3.2903,0.8392 3.2904,0.7748 3.2903,0.7113 3.2903,0.6547 3.2903,0.6083 3.2904,0.5726 3.2903,0.5465 3.2903,0.5287 3.2903,0.5179 3.2903,0.5128 3.2904,0.513 3.2903,0.5177 3.2903,0.5265 3.2903,0.5391 3.2904,0.555 3.2903,0.574 3.2903,0.5952 3.2903,0.6183 3.2903,0.6426 3.2904,0.668 3.2903,0.6938 3.2903,0.7208 3.2903,0.749 3.2904,0.7795 3.2903,0.8133 3.2903,0.8514 3.2903,0.8954 3.2904,0.9459 3.2903,1.0038 6.5806,2.2146 6.5807,2.5507 6.5806,2.9653 6.5807,3.4637 6.5806,4.0518 6.5806,4.7355 6.5807,5.5167 6.5806,6.3898 6.5807,7.3392 6.5806,8.3332 6.5807,9.3263 6.5806,10.2571 6.5807,11.0577 6.5806,11.6568 6.5807,11.9909 13.1612,23.6746 13.1613,20.8595 13.1613,15.3521 13.1613,8.0379 13.1613,0.314 13.1613,-6.365 13.1613,-10.9691 13.1613,-13.1652 13.1613,-13.2757 13.1613,-12.0055 13.1612,-10.104 13.1613,-8.1154 13.1613,-6.2908 13.1613,-4.6514 13.1613,-3.1624 13.1613,-1.9276 13.1613,-1.2662 13.1613,-1.4126 13.1613,-1.7989 13.1613,-1.5476 13.1612,-0.6554 13.1613,-1.0427 13.1613,-5.2169 13.1613,-12.5645 13.1613,-16.1051 13.1613,-6.6207 13.1613,46.5997" /></g></g><g
     id="g4166"
     style="fill:none;stroke:#000000;stroke-width:3.67199993;stroke-linecap:butt;stroke-linejoin:miter;stroke-dasharray:none"
     transform="matrix(1,0,0,-1,-23.207317,530.05546)"><g
       id="g4168"
       transform="translate(316.0977,192.4608)"><path
         inkscape:connector-curvature="0"
         id="path4170"
         d="m -204.5557,-100.5257 3.2903,0.2956 3.2903,0.6236 3.2903,1.0732 3.2904,1.5619 3.2903,1.9571 3.2903,2.1571 3.2903,2.1647 3.2903,2.0547 3.2904,1.895 3.2903,1.7206 3.2903,1.5484 3.2903,1.3923 3.2904,1.2636 3.2903,1.1674 3.2903,1.103 3.2903,1.0648 3.2904,1.046 3.2903,1.0391 3.2903,1.039 3.2903,1.0432 3.2903,1.0489 3.2904,1.0569 3.2903,1.0678 3.2903,1.0828 3.2903,1.1024 3.2904,1.1278 3.2903,1.1593 3.2903,1.1956 3.2903,1.237 3.2903,1.2822 3.2904,1.3311 3.2903,1.3831 3.2903,1.4392 3.2903,1.5007 3.2904,1.5685 3.2903,1.646 3.2903,1.735 3.2903,1.8374 3.2903,1.9567 6.5807,4.345 6.5806,5.0607 6.5807,5.9604 6.5806,7.0555 6.5807,8.3527 6.5806,9.853 6.5807,11.5454 6.5806,13.3999 6.5807,15.3597 6.5806,17.3364 6.5806,19.2146 6.5807,20.858 6.5806,22.126 6.5807,22.8885 6.5806,23.0351 13.1613,43.7139 13.1613,35.7307 13.1613,22.6688 13.1613,6.5803 13.1613,-9.5384 13.1613,-22.7116 13.1613,-31.0076 13.1612,-34.0171 13.1613,-32.6569 13.1613,-28.5265 13.1613,-23.197 13.1613,-17.7889 13.1613,-12.9184 13.1613,-8.8454 13.1613,-5.6281 13.1613,-3.3225 13.1613,-2.1957 13.1613,-2.4126 13.1612,-3.0949 13.1613,-3.246 13.1613,-3.1151 13.1613,-4.0709 13.1613,-8.8428 13.1613,-20.8211 13.1613,-24.9616 13.1613,-6.6207 13.1613,46.5996 9.9321,-48.7203" /></g></g><g
     id="g4172"
     style="fill:none;stroke:#000000;stroke-width:0.91799998;stroke-linecap:butt;stroke-linejoin:miter;stroke-dasharray:none"
     transform="matrix(1,0,0,-1,-23.207317,530.05546)"><g
       id="g4174"
       transform="translate(397.8,91.8)"><path
         inkscape:connector-curvature="0"
         id="path4176"
         d="M -306,0 306,0" /></g><g
       id="g4178"
       transform="translate(397.8,520.2)"><path
         inkscape:connector-curvature="0"
         id="path4180"
         d="M -306,0 306,0" /></g><g
       id="g4182"
       transform="translate(141.1548,94.86)"><path
         inkscape:connector-curvature="0"
         id="path4184"
         d="M 0,-3.06 0,3.06" /></g><g
       id="g4186"
       transform="translate(141.1548,517.14)"><path
         inkscape:connector-curvature="0"
         id="path4188"
         d="M 0,3.06 0,-3.06" /></g><g
       id="g4190"
       transform="translate(239.8645,94.86)"><path
         inkscape:connector-curvature="0"
         id="path4192"
         d="M 0,-3.06 0,3.06" /></g><g
       id="g4194"
       transform="translate(239.8645,517.14)"><path
         inkscape:connector-curvature="0"
         id="path4196"
         d="M 0,3.06 0,-3.06" /></g><g
       id="g4198"
       transform="translate(338.5742,94.86)"><path
         inkscape:connector-curvature="0"
         id="path4200"
         d="M 0,-3.06 0,3.06" /></g><g
       id="g4202"
       transform="translate(338.5742,517.14)"><path
         inkscape:connector-curvature="0"
         id="path4204"
         d="M 0,3.06 0,-3.06" /></g><g
       id="g4206"
       transform="translate(437.2839,94.86)"><path
         inkscape:connector-curvature="0"
         id="path4208"
         d="M 0,-3.06 0,3.06" /></g><g
       id="g4210"
       transform="translate(437.2839,517.14)"><path
         inkscape:connector-curvature="0"
         id="path4212"
         d="M 0,3.06 0,-3.06" /></g><g
       id="g4214"
       transform="translate(535.9935,94.86)"><path
         inkscape:connector-curvature="0"
         id="path4216"
         d="M 0,-3.06 0,3.06" /></g><g
       id="g4218"
       transform="translate(535.9935,517.14)"><path
         inkscape:connector-curvature="0"
         id="path4220"
         d="M 0,3.06 0,-3.06" /></g><g
       id="g4222"
       transform="translate(634.7032,94.86)"><path
         inkscape:connector-curvature="0"
         id="path4224"
         d="M 0,-3.06 0,3.06" /></g><g
       id="g4226"
       transform="translate(634.7032,517.14)"><path
         inkscape:connector-curvature="0"
         id="path4228"
         d="M 0,3.06 0,-3.06" /></g><g
       id="g4230"
       transform="translate(91.8,97.92)"><path
         inkscape:connector-curvature="0"
         id="path4232"
         d="M 0,-6.12 0,6.12" /></g><g
       id="g4234"
       transform="translate(91.8,514.08)"><path
         inkscape:connector-curvature="0"
         id="path4236"
         d="M 0,6.12 0,-6.12" /></g><g
       id="g4238"
       transform="translate(190.5097,97.92)"><path
         inkscape:connector-curvature="0"
         id="path4240"
         d="M 0,-6.12 0,6.12" /></g><g
       id="g4242"
       transform="translate(190.5097,514.08)"><path
         inkscape:connector-curvature="0"
         id="path4244"
         d="M 0,6.12 0,-6.12" /></g><g
       id="g4246"
       transform="translate(289.2194,97.92)"><path
         inkscape:connector-curvature="0"
         id="path4248"
         d="M 0,-6.12 0,6.12" /></g><g
       id="g4250"
       transform="translate(289.2194,514.08)"><path
         inkscape:connector-curvature="0"
         id="path4252"
         d="M 0,6.12 0,-6.12" /></g><g
       id="g4254"
       transform="translate(387.929,97.92)"><path
         inkscape:connector-curvature="0"
         id="path4256"
         d="M 0,-6.12 0,6.12" /></g><g
       id="g4258"
       transform="translate(387.929,514.08)"><path
         inkscape:connector-curvature="0"
         id="path4260"
         d="M 0,6.12 0,-6.12" /></g><g
       id="g4262"
       transform="translate(486.6387,97.92)"><path
         inkscape:connector-curvature="0"
         id="path4264"
         d="M 0,-6.12 0,6.12" /></g><g
       id="g4266"
       transform="translate(486.6387,514.08)"><path
         inkscape:connector-curvature="0"
         id="path4268"
         d="M 0,6.12 0,-6.12" /></g><g
       id="g4270"
       transform="translate(585.3484,97.92)"><path
         inkscape:connector-curvature="0"
         id="path4272"
         d="M 0,-6.12 0,6.12" /></g><g
       id="g4274"
       transform="translate(585.3484,514.08)"><path
         inkscape:connector-curvature="0"
         id="path4276"
         d="M 0,6.12 0,-6.12" /></g><g
       id="g4278"
       transform="translate(684.0581,97.92)"><path
         inkscape:connector-curvature="0"
         id="path4280"
         d="M 0,-6.12 0,6.12" /></g><g
       id="g4282"
       transform="translate(684.0581,514.08)"><path
         inkscape:connector-curvature="0"
         id="path4284"
         d="M 0,6.12 0,-6.12" /></g></g><g
     id="g4286"
     style="fill:#000000;fill-rule:nonzero"
     transform="matrix(1,0,0,-1,-23.207317,530.05546)"><text
       id="text4288"
       transform="matrix(0.047,0,0,-0.047,84.8,65.68)"
       style="font-style:normal;font-weight:normal;font-size:612px;font-family:Times, 'Nimbus Roman No9 L'">0</text>
<text
       id="text4290"
       transform="matrix(0.047,0,0,-0.047,177.0097,65.68)"
       style="font-style:normal;font-weight:normal;font-size:612px;font-family:Times, 'Nimbus Roman No9 L'">15</text>
<text
       id="text4292"
       transform="matrix(0.047,0,0,-0.047,275.2194,65.68)"
       style="font-style:normal;font-weight:normal;font-size:612px;font-family:Times, 'Nimbus Roman No9 L'">30</text>
<text
       id="text4294"
       transform="matrix(0.047,0,0,-0.047,374.429,65.68)"
       style="font-style:normal;font-weight:normal;font-size:612px;font-family:Times, 'Nimbus Roman No9 L'">45</text>
<text
       id="text4296"
       transform="matrix(0.047,0,0,-0.047,472.6387,65.68)"
       style="font-style:normal;font-weight:normal;font-size:612px;font-family:Times, 'Nimbus Roman No9 L'">60</text>
<text
       id="text4298"
       transform="matrix(0.047,0,0,-0.047,571.8484,65.68)"
       style="font-style:normal;font-weight:normal;font-size:612px;font-family:Times, 'Nimbus Roman No9 L'">75</text>
<text
       id="text4300"
       transform="matrix(0.047,0,0,-0.047,670.0581,65.68)"
       style="font-style:normal;font-weight:normal;font-size:612px;font-family:Times, 'Nimbus Roman No9 L'">90</text>
</g><g
     id="g4302"
     style="fill:none;stroke:#000000;stroke-width:0.91799998;stroke-linecap:butt;stroke-linejoin:miter;stroke-dasharray:none"
     transform="matrix(1,0,0,-1,-23.207317,530.05546)"><g
       id="g4304"
       transform="translate(91.8,306)"><path
         inkscape:connector-curvature="0"
         id="path4306"
         d="M 0,-214.2 0,214.2" /></g><g
       id="g4308"
       transform="translate(703.8,306)"><path
         inkscape:connector-curvature="0"
         id="path4310"
         d="M 0,-214.2 0,214.2" /></g><g
       id="g4312"
       transform="translate(94.86,134.64)"><path
         inkscape:connector-curvature="0"
         id="path4314"
         d="M -3.06,0 3.06,0" /></g><g
       id="g4316"
       transform="translate(700.74,134.64)"><path
         inkscape:connector-curvature="0"
         id="path4318"
         d="M 3.06,0 -3.06,0" /></g><g
       id="g4320"
       transform="translate(94.86,220.32)"><path
         inkscape:connector-curvature="0"
         id="path4322"
         d="M -3.06,0 3.06,0" /></g><g
       id="g4324"
       transform="translate(700.74,220.32)"><path
         inkscape:connector-curvature="0"
         id="path4326"
         d="M 3.06,0 -3.06,0" /></g><g
       id="g4328"
       transform="translate(94.86,306)"><path
         inkscape:connector-curvature="0"
         id="path4330"
         d="M -3.06,0 3.06,0" /></g><g
       id="g4332"
       transform="translate(700.74,306)"><path
         inkscape:connector-curvature="0"
         id="path4334"
         d="M 3.06,0 -3.06,0" /></g><g
       id="g4336"
       transform="translate(94.86,391.68)"><path
         inkscape:connector-curvature="0"
         id="path4338"
         d="M -3.06,0 3.06,0" /></g><g
       id="g4340"
       transform="translate(700.74,391.68)"><path
         inkscape:connector-curvature="0"
         id="path4342"
         d="M 3.06,0 -3.06,0" /></g><g
       id="g4344"
       transform="translate(94.86,477.36)"><path
         inkscape:connector-curvature="0"
         id="path4346"
         d="M -3.06,0 3.06,0" /></g><g
       id="g4348"
       transform="translate(700.74,477.36)"><path
         inkscape:connector-curvature="0"
         id="path4350"
         d="M 3.06,0 -3.06,0" /></g><g
       id="g4352"
       transform="translate(97.92,91.8)"><path
         inkscape:connector-curvature="0"
         id="path4354"
         d="M -6.12,0 6.12,0" /></g><g
       id="g4356"
       transform="translate(697.68,91.8)"><path
         inkscape:connector-curvature="0"
         id="path4358"
         d="M 6.12,0 -6.12,0" /></g><g
       id="g4360"
       transform="translate(97.92,177.48)"><path
         inkscape:connector-curvature="0"
         id="path4362"
         d="M -6.12,0 6.12,0" /></g><g
       id="g4364"
       transform="translate(697.68,177.48)"><path
         inkscape:connector-curvature="0"
         id="path4366"
         d="M 6.12,0 -6.12,0" /></g><g
       id="g4368"
       transform="translate(97.92,263.16)"><path
         inkscape:connector-curvature="0"
         id="path4370"
         d="M -6.12,0 6.12,0" /></g><g
       id="g4372"
       transform="translate(697.68,263.16)"><path
         inkscape:connector-curvature="0"
         id="path4374"
         d="M 6.12,0 -6.12,0" /></g><g
       id="g4376"
       transform="translate(97.92,348.84)"><path
         inkscape:connector-curvature="0"
         id="path4378"
         d="M -6.12,0 6.12,0" /></g><g
       id="g4380"
       transform="translate(697.68,348.84)"><path
         inkscape:connector-curvature="0"
         id="path4382"
         d="M 6.12,0 -6.12,0" /></g><g
       id="g4384"
       transform="translate(97.92,434.52)"><path
         inkscape:connector-curvature="0"
         id="path4386"
         d="M -6.12,0 6.12,0" /></g><g
       id="g4388"
       transform="translate(697.68,434.52)"><path
         inkscape:connector-curvature="0"
         id="path4390"
         d="M 6.12,0 -6.12,0" /></g><g
       id="g4392"
       transform="translate(97.92,520.2)"><path
         inkscape:connector-curvature="0"
         id="path4394"
         d="M -6.12,0 6.12,0" /></g><g
       id="g4396"
       transform="translate(697.68,520.2)"><path
         inkscape:connector-curvature="0"
         id="path4398"
         d="M 6.12,0 -6.12,0" /></g></g><g
     id="g4400"
     style="fill:#000000;fill-rule:nonzero"
     transform="matrix(1,0,0,-1,-23.207317,530.05546)"><text
       id="text4402"
       transform="matrix(0.0468,0,0,-0.0468,71.68,82.3)"
       style="font-style:normal;font-weight:normal;font-size:612px;font-family:Times, 'Nimbus Roman No9 L'">0</text>
<text
       id="text4404"
       transform="matrix(0.0468,0,0,-0.0468,71.68,167.48)"
       style="font-style:normal;font-weight:normal;font-size:612px;font-family:Times, 'Nimbus Roman No9 L'">4</text>
<text
       id="text4406"
       transform="matrix(0.0468,0,0,-0.0468,72.68,253.66)"
       style="font-style:normal;font-weight:normal;font-size:612px;font-family:Times, 'Nimbus Roman No9 L'">8</text>
<text
       id="text4408"
       transform="matrix(0.0468,0,0,-0.0468,57.68,338.84)"
       style="font-style:normal;font-weight:normal;font-size:612px;font-family:Times, 'Nimbus Roman No9 L'">12</text>
<text
       id="text4410"
       transform="matrix(0.0468,0,0,-0.0468,57.68,425.02)"
       style="font-style:normal;font-weight:normal;font-size:612px;font-family:Times, 'Nimbus Roman No9 L'">16</text>
<text
       id="text4412"
       transform="matrix(0.0468,0,0,-0.0468,57.68,510.7)"
       style="font-style:normal;font-weight:normal;font-size:612px;font-family:Times, 'Nimbus Roman No9 L'">20</text>
</g><g
     id="g4414"
     style="fill:none;stroke:#000000;stroke-width:0.91799998;stroke-linecap:butt;stroke-linejoin:miter;stroke-dasharray:none"
     transform="matrix(1,0,0,-1,-23.207317,530.05546)"><g
       id="g4416"
       transform="translate(397.8,306)"><path
         inkscape:connector-curvature="0"
         id="path4418"
         d="m -306,-214.2 0,428.4 612,0 0,-428.4 z" /></g></g><g
     id="g4643"
     transform="translate(-415.22732,-89.538151)"><g
       id="g4422"
       transform="matrix(1,0,0,-1,612.598,156.64)"
       style="fill:#ffffff;fill-rule:nonzero"><path
         inkscape:connector-curvature="0"
         id="path4424"
         d="m -92.398,34.24 0,-68.48 184.796,0 0,68.48 z" /></g><g
       id="g4428"
       transform="matrix(1,0,0,-1,612.598,156.64)"
       style="fill:none;stroke:#000000;stroke-width:0.91799998;stroke-linecap:butt;stroke-linejoin:miter;stroke-dasharray:none"><path
         inkscape:connector-curvature="0"
         id="path4430"
         d="m -92.398,34.24 0,-68.48 184.796,0 0,68.48 z" /></g><text
       y="140.52"
       x="564.87598"
       id="text4434"
       style="font-style:normal;font-weight:normal;font-size:17.13599968px;font-family:Times, 'Nimbus Roman No9 L';fill:#000000;fill-rule:nonzero">total</text>
<g
       id="g4438"
       transform="matrix(1,0,0,-1,540.396,134.52)"
       style="fill:none;stroke:#000000;stroke-width:3.67199993;stroke-linecap:butt;stroke-linejoin:miter;stroke-dasharray:none"><path
         inkscape:connector-curvature="0"
         id="path4440"
         d="M -12.24,0 12.24,0" /></g><text
       y="158.64"
       x="564.87598"
       id="text4444"
       style="font-style:normal;font-weight:normal;font-size:17.13599968px;font-family:Times, 'Nimbus Roman No9 L';fill:#000000;fill-rule:nonzero">elastic breakup</text>
<g
       id="g4448"
       transform="matrix(1,0,0,-1,540.396,154.64)"
       style="fill:none;stroke:#ff0000;stroke-width:3.67199993;stroke-linecap:butt;stroke-linejoin:miter;stroke-dasharray:none"><path
         inkscape:connector-curvature="0"
         id="path4450"
         d="M -12.24,0 12.24,0" /></g><text
       y="180.75999"
       x="564.87598"
       id="text4454"
       style="font-style:normal;font-weight:normal;font-size:17.13599968px;font-family:Times, 'Nimbus Roman No9 L';fill:#000000;fill-rule:nonzero">non-elastic breakup</text>
<g
       id="g4458"
       transform="matrix(1,0,0,-1,540.396,176.76)"
       style="fill:none;stroke:#0000ff;stroke-width:3.67199993;stroke-linecap:butt;stroke-linejoin:miter;stroke-dasharray:none"><path
         inkscape:connector-curvature="0"
         id="path4460"
         d="M -12.24,0 12.24,0" /></g></g><path
     style="fill:none;fill-rule:evenodd;stroke:#000000;stroke-width:1.60000002;stroke-linecap:butt;stroke-linejoin:miter;stroke-miterlimit:4;stroke-dasharray:none;stroke-opacity:1;marker-start:url(#Arrow1Mstart)"
     d="m 645.12658,222.81987 0,-45.64068"
     id="path4658"
     inkscape:connector-curvature="0" /><text
     xml:space="preserve"
     style="font-style:normal;font-variant:normal;font-weight:normal;font-stretch:normal;font-size:19.34137344px;line-height:125%;font-family:'Times New Roman';-inkscape-font-specification:'Times New Roman, Normal';text-align:start;letter-spacing:0px;word-spacing:0px;writing-mode:lr-tb;text-anchor:start;fill:#000000;fill-opacity:1;stroke:none;stroke-width:1px;stroke-linecap:butt;stroke-linejoin:miter;stroke-opacity:1"
     x="512.06384"
     y="144.83972"
     id="text5134"
     sodipodi:linespacing="125%"><tspan
       sodipodi:role="line"
       id="tspan5136"
       x="512.06384"
       y="144.83972"><tspan
   style="font-size:10.05751324px;baseline-shift:super"
   id="tspan5138">85</tspan>Se neutron</tspan><tspan
       sodipodi:role="line"
       x="512.06384"
       y="169.01643"
       id="tspan5140">emission threshold</tspan></text>
<text
     xml:space="preserve"
     style="font-style:normal;font-variant:normal;font-weight:normal;font-stretch:normal;font-size:30px;line-height:125%;font-family:'Times New Roman';-inkscape-font-specification:'Times New Roman, Normal';text-align:start;letter-spacing:0px;word-spacing:0px;writing-mode:lr-tb;text-anchor:start;fill:#000000;fill-opacity:1;stroke:none;stroke-width:1px;stroke-linecap:butt;stroke-linejoin:miter;stroke-opacity:1"
     x="372.6095"
     y="55.454964"
     id="text5142"
     sodipodi:linespacing="125%"><tspan
       sodipodi:role="line"
       id="tspan5144"
       x="372.6095"
       y="55.454964"><tspan
   style="font-size:51.99999809%;baseline-shift:super"
   id="tspan5148">84</tspan>Se (d,p),  E<tspan
   style="font-size:51.99999809%;baseline-shift:sub"
   id="tspan5146">d</tspan>=90 MeV</tspan></text>
<text
     xml:space="preserve"
     style="font-style:normal;font-variant:normal;font-weight:normal;font-stretch:normal;font-size:30px;line-height:125%;font-family:'Times New Roman';-inkscape-font-specification:'Times New Roman, Normal';text-align:start;letter-spacing:0px;word-spacing:0px;writing-mode:lr-tb;text-anchor:start;fill:#000000;fill-opacity:1;stroke:none;stroke-width:1px;stroke-linecap:butt;stroke-linejoin:miter;stroke-opacity:1"
     x="361.21909"
     y="500.63022"
     id="text5150"
     sodipodi:linespacing="125%"><tspan
       sodipodi:role="line"
       id="tspan5152"
       x="361.21909"
       y="500.63022">E<tspan
   style="font-size:51.99999809%;baseline-shift:sub"
   id="tspan5154">p</tspan></tspan></text>
<text
     xml:space="preserve"
     style="font-style:normal;font-variant:normal;font-weight:normal;font-stretch:normal;font-size:30px;line-height:125%;font-family:'Times New Roman';-inkscape-font-specification:'Times New Roman, Normal';text-align:start;letter-spacing:0px;word-spacing:0px;writing-mode:lr-tb;text-anchor:start;fill:#000000;fill-opacity:1;stroke:none;stroke-width:1px;stroke-linecap:butt;stroke-linejoin:miter;stroke-opacity:1"
     x="-314.78491"
     y="20.830078"
     id="text5156"
     sodipodi:linespacing="125%"
     transform="matrix(0,-1,1,0,0,0)"><tspan
       sodipodi:role="line"
       id="tspan5158"
       x="-314.78491"
       y="20.830078">dσ/dE (mb/MeV)</tspan></text>
</svg>